<svg width="298" height="50" viewBox="0 0 298 50" fill="none" xmlns="http://www.w3.org/2000/svg">
<g clip-path="url(#clip0_256_1034)">
<path d="M0 48.8556H5.33835V0.191895L0 1.39814V48.8556Z" fill="#1E1E1E"/>
<path d="M24.9682 17.5756L20.7757 14.4644L7.69208 31.5331L22.4911 49.7387L26.683 46.4431L13.9761 31.28L24.9682 17.5756Z" fill="#1E1E1E"/>
<path d="M42.7437 14.8561C39.1208 14.8561 35.0591 15.993 31.6903 17.898L33.2824 21.6392C36.0129 20.3717 39.505 19.4192 42.6204 19.4192C47.0663 19.4192 49.4201 21.5086 49.4201 26.778V29.5048H42.7512L42.7356 29.5123C34.1592 29.5123 29.5825 33.0611 29.5825 39.8517C29.5825 45.8123 33.1441 49.3692 39.0513 49.3692C42.4202 49.3692 46.6814 47.8486 49.9815 45.183L50.6198 48.8623H54.5582V27.0386C54.5582 18.6655 50.6811 14.8555 42.7431 14.8555L42.7437 14.8561ZM49.4282 41.2348C47.2053 43.3936 43.1436 45.0448 40.0288 45.0448C36.598 45.0448 34.6905 43.078 34.6905 39.5905C34.6905 35.2736 37.421 33.2455 43.459 33.2455H49.4282V41.2342V41.2348Z" fill="#1E1E1E"/>
<path d="M64.0965 48.8556H69.4348V0.191895L64.0965 1.39814V48.8556Z" fill="#1E1E1E"/>
<path d="M89.064 17.5756L84.8722 14.4644L71.7886 31.5331L86.5876 49.7387L90.7801 46.4431L78.0726 31.28L89.064 17.5756Z" fill="#1E1E1E"/>
<path d="M106.84 14.8561C103.217 14.8561 99.1562 15.993 95.7874 17.898L97.3795 21.6392C100.11 20.3717 103.602 19.4192 106.718 19.4192C111.163 19.4192 113.517 21.5086 113.517 26.778V29.5048H106.848L106.833 29.5123C98.2563 29.5123 93.6796 33.0611 93.6796 39.8517C93.6796 45.8123 97.2412 49.3692 103.148 49.3692C106.517 49.3692 110.779 47.8486 114.079 45.183L114.717 48.8623H118.655V27.0386C118.655 18.6655 114.778 14.8555 106.84 14.8555V14.8561ZM113.525 41.2348C111.302 43.3936 107.241 45.0448 104.125 45.0448C100.695 45.0448 98.7876 43.078 98.7876 39.5905C98.7876 35.2736 101.518 33.2455 107.556 33.2455H113.525V41.2342V41.2348Z" fill="#1E1E1E"/>
<path d="M141.154 14.8486C131.939 14.8486 126.285 21.1249 126.285 32.2324C126.285 43.3399 131.816 49.493 141.154 49.493C150.492 49.493 156.022 43.3324 156.022 32.2324C156.022 21.1324 150.369 14.8486 141.154 14.8486ZM141.154 45.1143C135.247 45.1143 131.816 40.6743 131.816 32.2318C131.816 23.7893 135.246 19.2268 141.154 19.2268C147.062 19.2268 150.492 23.7899 150.492 32.2318C150.492 40.6736 147.061 45.1143 141.154 45.1143Z" fill="#1E1E1E"/>
<path d="M180.098 14.4031C177.175 14.4031 174.506 15.2944 172.476 16.5619V0L163.961 1.52125V47.8419C166.314 48.8562 171.522 49.8088 176.414 49.8088C186.96 49.8088 193.313 42.8875 193.313 31.2806C193.313 20.5569 189.121 14.4038 180.099 14.4038L180.098 14.4031ZM175.522 43.4012C174.699 43.4012 173.806 43.4012 172.476 43.2094V22.0156H172.467C173.483 21.7006 175.137 21.255 177.044 21.255C183.074 21.255 184.667 25.0037 184.667 31.4719C184.667 40.0369 180.859 43.4012 175.521 43.4012H175.522Z" fill="#1E1E1E"/>
<path d="M211.481 14.3877C207.097 14.3877 202.328 15.7246 199.089 17.9446L201.443 23.7827C204.496 22.2002 207.35 21.5627 210.465 21.5627C215.48 21.5627 216.627 23.6596 216.627 27.3396V28.4839H211.289V28.4683C202.205 28.4683 197.374 32.1477 197.374 39.1921C197.374 45.8521 200.997 49.7233 207.543 49.7233C210.527 49.7233 214.212 48.6477 217.643 45.9827L218.596 48.8402H224.565V27.2702C224.565 18.5746 220.058 14.3877 211.481 14.3877ZM216.627 40.4827L216.619 40.4752C215.096 41.8114 212.043 43.1408 209.25 43.1408C206.458 43.1408 205.058 41.5583 205.058 39.1464C205.058 35.7821 207.473 33.9458 212.05 33.9458H216.627V40.4827Z" fill="#1E1E1E"/>
<path d="M250.171 14.4033C246.61 14.4033 242.479 16.1164 239.495 18.7821L238.226 15.4177H232.188V48.8483H240.703V23.0914C242.672 22.3308 245.218 21.8239 246.995 21.8239C251.502 21.8239 252.902 23.4139 252.902 27.1552V48.8558H261.416V27.4083C261.416 19.0352 257.671 14.4033 250.171 14.4033H250.171Z" fill="#1E1E1E"/>
<path d="M286.439 31.0875L296.731 17.8294L290.377 13.3894L277.547 30.7725V0L269.032 1.52125V48.8631H277.547V32.8081L291.585 50L298 44.9225L286.439 31.0875Z" fill="#1E1E1E"/>
</g>
<defs>
<clipPath id="clip0_256_1034">
<rect width="298" height="50" fill="white"/>
</clipPath>
</defs>
</svg>
