<svg width="203" height="50" viewBox="0 0 203 50" fill="none" xmlns="http://www.w3.org/2000/svg">
<path d="M65.0968 13.7985C61.4673 13.7985 58.088 15.0814 55.6162 17.428L54.7714 18.2259V0H45.0874V31.1483C45.0874 42.7722 52.0336 49.9844 63.2194 49.9844C74.4053 49.9844 82.0868 42.3968 82.0868 31.9305C82.0868 21.4643 74.9372 13.7985 65.0968 13.7985ZM63.548 41.1295C58.4635 41.1295 54.3177 36.9837 54.3177 31.9149C54.3177 26.8461 58.4635 22.6846 63.548 22.6846C68.6325 22.6846 72.7783 26.8304 72.7783 31.9149C72.7783 36.9994 68.6325 41.1295 63.548 41.1295Z" fill="white"/>
<path d="M28.9581 0L9.79349 22.2309V0H0V48.8423H9.79349V26.7991L29.3492 48.8423H41.9431L20.3066 24.4212L41.3642 0H28.9581Z" fill="white"/>
<path d="M202.675 14.9406H191.896L179.49 29.5839V0H169.806V48.8579H179.49V34.199L191.896 48.8579H202.675L188.329 31.8836L202.675 14.9406Z" fill="white"/>
<path d="M150.829 13.7988C144.853 13.7988 141.161 16.5992 139.393 18.5548V14.9565H130.038V48.8583H139.722V30.3977C139.722 25.7826 142.929 22.5598 146.949 22.5598C150.97 22.5598 154.193 25.7826 154.193 30.3977V48.8583H163.877V27.4878C163.877 19.556 158.12 13.7988 150.814 13.7988H150.829Z" fill="white"/>
<path d="M105.304 13.7988C94.4932 13.7988 86.6396 21.4177 86.6396 31.9309C86.6396 42.444 93.8831 50.0003 103.849 50.0003C113.814 50.0003 114.722 44.8689 114.753 44.822L115.3 44.0554V48.8583H124.108V31.9309C124.108 21.4334 116.208 13.7988 105.304 13.7988ZM105.601 41.1299C100.516 41.1299 96.3706 36.9841 96.3706 31.9152C96.3706 26.8464 100.516 22.6849 105.601 22.6849C110.685 22.6849 114.831 26.8307 114.831 31.9152C114.831 36.9997 110.685 41.1299 105.601 41.1299Z" fill="white"/>
</svg>
