<svg width="183" height="50" viewBox="0 0 183 50" fill="none" xmlns="http://www.w3.org/2000/svg">
<g clip-path="url(#clip0_256_631)">
<path d="M14.405 11.7955V34.718C14.405 37.0673 16.3422 39.0037 18.7165 39.0037C21.1008 39.0037 23.038 37.0673 23.038 34.718V11.6087C23.038 4.01046 18.9748 0 11.2756 0H4.31156C1.93722 0 0 1.91676 0 4.27586C0 6.63495 1.93722 8.56154 4.31156 8.56154H11.067C12.6863 8.56154 14.405 9.63296 14.405 11.7955Z" fill="white"/>
<path d="M33.1217 0H26.1775C23.8528 0 21.856 0.373523 20.2168 1.08125C22.5415 2.88006 23.972 5.58319 24.4191 9.13166C24.9953 8.7483 25.6907 8.55171 26.3662 8.55171H33.1117C35.5159 8.55171 37.4531 6.62512 37.4531 4.26603C37.4531 1.91676 35.5258 0 33.1217 0Z" fill="white"/>
</g>
<path d="M169.515 29.1258L174.759 16.6915C175.192 15.6261 175.857 14.8937 176.756 14.4942C177.688 14.0614 178.687 14.0781 179.752 14.5441C180.818 15.0102 181.517 15.6761 181.85 16.5416C182.183 17.4072 182.1 18.406 181.6 19.5379L171.713 41.1607C171.113 42.4258 170.531 43.591 169.965 44.6563C169.399 45.755 168.75 46.6871 168.017 47.4528C167.318 48.2518 166.502 48.8677 165.57 49.3005C164.638 49.7666 163.539 49.9996 162.274 49.9996C161.642 49.9996 161.009 49.9663 160.377 49.8997C159.778 49.8332 159.145 49.6667 158.479 49.4004C157.747 49.1008 157.181 48.6014 156.781 47.9023C156.382 47.2031 156.299 46.4374 156.532 45.6051C156.765 44.7729 157.214 44.157 157.88 43.7575C158.546 43.3913 159.262 43.2914 160.027 43.4578C160.294 43.5244 160.593 43.5744 160.926 43.6076C161.259 43.6742 161.575 43.7075 161.875 43.7075C162.308 43.7075 162.691 43.591 163.023 43.358C163.39 43.1582 163.706 42.8919 163.972 42.559C164.239 42.226 164.472 41.8432 164.671 41.4104C164.871 40.9776 165.054 40.5282 165.221 40.0621L165.97 38.2144L157.43 19.5379C156.931 18.406 156.848 17.4072 157.181 16.5416C157.514 15.6761 158.213 15.0102 159.278 14.5441C160.343 14.0781 161.326 14.0614 162.224 14.4942C163.157 14.8937 163.839 15.6261 164.272 16.6915L169.515 29.1258Z" fill="white"/>
<path d="M147.934 23.6334C147.934 23.0342 147.784 22.4849 147.485 21.9855C147.218 21.4861 146.836 21.0533 146.336 20.6871C145.87 20.3209 145.321 20.0379 144.688 19.8382C144.056 19.6051 143.39 19.4886 142.691 19.4886C141.992 19.4886 141.326 19.6051 140.693 19.8382C140.061 20.0379 139.495 20.3209 138.995 20.6871C138.529 21.0533 138.147 21.4861 137.847 21.9855C137.581 22.4849 137.447 23.0342 137.447 23.6334H147.934ZM152.878 36.4673C151.713 37.5326 150.315 38.2983 148.683 38.7644C147.052 39.2638 145.288 39.5135 143.39 39.5135C141.293 39.5135 139.428 39.1972 137.797 38.5647C136.199 37.9321 134.851 37.0499 133.752 35.918C132.653 34.7528 131.821 33.3712 131.255 31.7732C130.689 30.1752 130.406 28.4274 130.406 26.5298C130.406 24.6987 130.689 23.0175 131.255 21.4861C131.854 19.9214 132.687 18.5731 133.752 17.4412C134.817 16.3093 136.099 15.427 137.597 14.7945C139.129 14.162 140.826 13.8457 142.691 13.8457C144.588 13.8457 146.286 14.1453 147.784 14.7446C149.283 15.3438 150.531 16.1428 151.53 17.1416C152.562 18.1403 153.344 19.2889 153.877 20.5872C154.409 21.8523 154.676 23.184 154.676 24.5822C154.676 25.9805 154.409 26.9959 153.877 27.6284C153.344 28.2609 152.379 28.5772 150.98 28.5772H137.447C137.447 29.2763 137.597 29.9422 137.897 30.5747C138.196 31.1739 138.613 31.7233 139.145 32.2226C139.678 32.6887 140.31 33.0549 141.043 33.3212C141.775 33.5876 142.558 33.7207 143.39 33.7207C144.688 33.7207 145.77 33.521 146.636 33.1215C147.535 32.722 148.384 32.1893 149.183 31.5235C149.882 30.9243 150.681 30.6246 151.58 30.6246C152.479 30.6246 153.228 30.9908 153.827 31.7233C154.459 32.4224 154.642 33.2214 154.376 34.1202C154.143 34.9858 153.644 35.7682 152.878 36.4673Z" fill="white"/>
<path d="M103.121 18.0904C103.121 16.9252 103.437 15.993 104.069 15.2939C104.735 14.5948 105.651 14.2452 106.816 14.2452C107.981 14.2452 108.863 14.5948 109.463 15.2939C110.062 15.993 110.395 16.7754 110.461 17.6409C110.994 16.4757 111.876 15.5602 113.108 14.8944C114.373 14.1953 115.755 13.8457 117.253 13.8457C120.149 13.8457 122.413 14.7279 124.044 16.4924C125.676 18.2235 126.491 20.5207 126.491 23.3837V35.2688C126.491 36.434 126.142 37.3495 125.443 38.0154C124.777 38.7145 123.861 39.064 122.696 39.064C121.531 39.064 120.615 38.7145 119.949 38.0154C119.284 37.3495 118.951 36.434 118.951 35.2688V24.2826C118.951 23.1507 118.568 22.2019 117.802 21.4362C117.036 20.6372 116.038 20.2377 114.806 20.2377C113.641 20.2377 112.659 20.6205 111.86 21.3862C111.061 22.1186 110.661 23.0675 110.661 24.2327V35.2688C110.661 36.434 110.328 37.3495 109.662 38.0154C108.997 38.7145 108.081 39.064 106.916 39.064C105.751 39.064 104.818 38.7145 104.119 38.0154C103.454 37.3495 103.121 36.434 103.121 35.2688V18.0904Z" fill="white"/>
<path d="M81.1799 26.6796C81.1799 27.5785 81.2964 28.4274 81.5295 29.2264C81.7625 30.0254 82.0954 30.7245 82.5282 31.3238C82.9943 31.923 83.5436 32.4057 84.1761 32.7719C84.842 33.1381 85.6077 33.3212 86.4733 33.3212C87.3055 33.3212 88.0546 33.1381 88.7204 32.7719C89.3863 32.4057 89.9356 31.923 90.3684 31.3238C90.8345 30.7245 91.184 30.0254 91.4171 29.2264C91.6501 28.4274 91.7666 27.5785 91.7666 26.6796C91.7666 25.7807 91.6501 24.9318 91.4171 24.1328C91.184 23.3338 90.8345 22.6347 90.3684 22.0354C89.9356 21.4362 89.3863 20.9534 88.7204 20.5872C88.0546 20.221 87.3055 20.0379 86.4733 20.0379C85.6077 20.0379 84.842 20.221 84.1761 20.5872C83.5436 20.9534 82.9943 21.4362 82.5282 22.0354C82.0954 22.6347 81.7625 23.3338 81.5295 24.1328C81.2964 24.9318 81.1799 25.7807 81.1799 26.6796ZM73.7393 26.6796C73.7393 24.7487 74.0389 23.0009 74.6381 21.4362C75.2374 19.8382 76.0863 18.4899 77.1849 17.3913C78.3168 16.2593 79.6652 15.3938 81.2299 14.7945C82.7946 14.162 84.5424 13.8457 86.4733 13.8457C88.4042 13.8457 90.152 14.162 91.7167 14.7945C93.2814 15.3938 94.613 16.2593 95.7117 17.3913C96.8436 18.4899 97.7092 19.8382 98.3084 21.4362C98.9076 23.0009 99.2073 24.7487 99.2073 26.6796C99.2073 28.6105 98.9076 30.3749 98.3084 31.9729C97.7092 33.5376 96.8436 34.8859 95.7117 36.0179C94.613 37.1165 93.2814 37.9654 91.7167 38.5647C90.152 39.1972 88.4042 39.5135 86.4733 39.5135C84.5424 39.5135 82.7946 39.1972 81.2299 38.5647C79.6652 37.9654 78.3168 37.1165 77.1849 36.0179C76.0863 34.8859 75.2374 33.5376 74.6381 31.9729C74.0389 30.3749 73.7393 28.6105 73.7393 26.6796Z" fill="white"/>
<path d="M62.3595 24.0329C62.3595 22.9676 62.0266 22.0687 61.3607 21.3363C60.6949 20.5706 59.796 20.1877 58.6641 20.1877C57.5322 20.1877 56.6333 20.5706 55.9675 21.3363C55.3017 22.102 54.9688 23.134 54.9688 24.4324V35.2688C54.9688 36.434 54.6525 37.3495 54.02 38.0154C53.4207 38.7145 52.5385 39.064 51.3733 39.064C50.2081 39.064 49.3092 38.7145 48.6767 38.0154C48.0441 37.3495 47.7279 36.434 47.7279 35.2688V24.0329C47.7279 22.9676 47.3949 22.0687 46.7291 21.3363C46.0633 20.5706 45.1644 20.1877 44.0325 20.1877C42.9006 20.1877 42.0017 20.5706 41.3359 21.3363C40.6701 22.102 40.3371 23.134 40.3371 24.4324V35.2688C40.3371 36.434 40.0042 37.3495 39.3384 38.0154C38.7059 38.7145 37.807 39.064 36.6418 39.064C35.4766 39.064 34.5611 38.7145 33.8952 38.0154C33.2294 37.3495 32.8965 36.434 32.8965 35.2688V18.0904C32.8965 16.8253 33.2294 15.8765 33.8952 15.2439C34.5611 14.5781 35.4599 14.2452 36.5918 14.2452C37.6572 14.2452 38.5061 14.5948 39.1386 15.2939C39.8045 15.993 40.1707 16.792 40.2373 17.6909C40.8032 16.5257 41.6355 15.5935 42.7341 14.8944C43.8328 14.1953 45.231 13.8457 46.9289 13.8457C48.5934 13.8457 49.9251 14.2618 50.9238 15.0941C51.9226 15.9264 52.6217 16.9751 53.0212 18.2402C54.7191 15.3105 57.4989 13.8457 61.3607 13.8457C62.4927 13.8457 63.5746 14.0122 64.6067 14.3451C65.6387 14.6447 66.5376 15.1441 67.3033 15.8432C68.069 16.509 68.6682 17.3746 69.101 18.4399C69.5671 19.5053 69.8001 20.787 69.8001 22.2851V35.2688C69.8001 36.434 69.4672 37.3495 68.8014 38.0154C68.1356 38.7145 67.22 39.064 66.0548 39.064C64.8563 39.064 63.9408 38.7145 63.3083 38.0154C62.6758 37.3495 62.3595 36.434 62.3595 35.2688V24.0329Z" fill="white"/>
<defs>
<clipPath id="clip0_256_631">
<rect width="37.453" height="39.0135" fill="white"/>
</clipPath>
</defs>
</svg>
