<svg width="208" height="50" viewBox="0 0 208 50" fill="none" xmlns="http://www.w3.org/2000/svg">
<path d="M170.214 9.24512C168.072 9.24512 167.18 10.0053 166.742 12.0006L161.582 43.8609H172.75L178.765 9.24512H170.214Z" fill="white"/>
<path d="M39.7468 9.21582H29.9965C28.4908 9.21582 27.6429 9.69091 26.6489 10.6265L15.5026 21.4731L18.1996 9.22313H9.37024C7.26522 9.22313 6.39544 9.97596 5.97152 11.9202L0 43.8608H11.0733L14.1211 28.8188L24.4416 43.8608H38.2411L24.5 24.2871L39.7468 9.21582Z" fill="white"/>
<path d="M191.395 35.7478L195.949 9.24512H187.404C185.299 9.24512 184.4 9.97603 183.947 11.8837L178.772 43.8609H206.072L207.117 35.7478H191.395Z" fill="white"/>
<path d="M142.732 20.0632L147.176 43.8616H159.016L151.736 9.24577H140.809C139.092 9.24577 138.375 9.73548 137.615 10.9634L123.319 39.2715L113.437 30.3398C117.917 29.0826 122.895 25.6473 124.291 19.8805C126.776 9.63315 118.129 9.21654 115.25 9.21654H99.3742C97.3204 9.21654 96.9549 9.66239 96.5164 11.5262L93.4612 25.8885C85.6697 20.8087 67.9964 10.5249 55.5563 10.3641C52.4207 10.3202 50.1403 10.7953 47.9256 12.1548C47.5894 12.3667 47.5017 12.3302 47.4579 12.3229L47.6333 11.9648C48.9781 10.3348 51.7044 7.69625 56.3091 6.27829C56.3091 6.27829 63.6475 3.72011 73.5074 9.69163C79.2377 13.1707 83.0896 16.0871 86.8392 19.1861C83.9959 7.4185 73.0031 -0.994246 60.4388 0.094807C49.0439 1.05961 40.083 9.48697 37.9561 20.129C44.0299 14.6837 55.6879 12.7541 73.5147 18.8499C77.5201 20.2167 81.2185 21.7078 84.588 23.2207C87.6724 24.5948 90.7934 26.2321 94.0532 28.1105C100.778 31.977 108.284 37.3711 114.365 43.8616H131.044L142.732 20.0632ZM104.834 26.4587C105.178 24.7849 107.049 15.7582 107.297 14.5668H111.412C111.412 14.5668 115.535 14.3183 114.065 19.8805C114.058 19.8805 112.421 26.4587 104.834 26.4587Z" fill="white"/>
<path d="M103.102 35.0834C102.21 38.9645 101.267 43.8616 101.267 43.8616H89.6384L92.2843 31.4069C89.6896 30.5591 87.8696 30.0474 87.0364 29.8355C84.9168 40.4483 76.1239 48.9414 64.751 49.9062C57.3688 50.5348 50.4618 47.9693 45.4477 43.2842L45.4185 43.2623C45.4185 43.2623 40.5872 38.8622 40.96 32.5033C41.3327 25.969 47.0777 23.3231 47.0777 23.3231C53.7582 19.7416 68.5517 19.3543 89.4703 28.3152C89.4776 28.3225 96.5016 31.0853 103.102 35.0834Z" fill="white"/>
</svg>
