<svg width="227" height="50" viewBox="0 0 227 50" fill="none" xmlns="http://www.w3.org/2000/svg">
<path d="M105.91 2.38726H98.7777V20.7959H69.628V2.38726H62.4962C60.8132 2.38726 59.4345 4.00795 59.4345 6.01546V44.9325C59.4345 46.9271 60.8053 48.5677 62.4962 48.5677H69.628V28.7944H98.7777V48.5677H105.91C107.604 48.5677 108.975 46.9271 108.975 44.9325V6.01587C108.975 4.00837 107.617 2.38726 105.91 2.38726ZM47.548 2.38726H40.4103V37.747L18.974 9.50088C15.4105 5.37838 12.9631 2.38684 7.26512 2.38684H0V44.9321C0 46.9267 1.36421 48.5673 3.07621 48.5673H10.1998V13.0386L31.7752 41.093C35.4204 45.3126 38.661 48.5677 43.946 48.5677H50.6039V6.01587C50.6039 4.00837 49.2359 2.38726 47.548 2.38726ZM155.722 30.8505C158.049 32.335 159.451 34.4953 159.451 37.3702C159.451 43.6558 152.686 46.5245 144.319 46.5245C135.957 46.5245 129.19 43.6558 129.19 37.3702C129.19 31.0841 135.864 28.2225 144.319 28.2225L144.209 28.2096H169.379C169.719 28.2096 169.987 27.9303 170.034 27.5211C170.058 27.3198 170.193 26.2673 170.024 25.3858C169.949 25.0222 169.709 24.7914 169.371 24.7914H148.237V18.256H168.353C168.702 18.256 168.969 17.9833 169.016 17.5803C169.045 17.3819 169.172 16.3165 169.006 15.4362C168.936 15.0789 168.683 14.8548 168.335 14.8548H130.223C129.157 14.8548 128.272 14.0106 128.272 12.9871V3.68008C128.272 2.63752 127.394 1.80912 126.323 1.80912H120.337V14.7411C120.337 16.6705 121.988 18.256 124.036 18.256H140.297V24.7919H116.971L119.229 28.2096H126.182C123.126 30.2923 121.298 33.2124 121.298 36.9643C121.298 45.9203 131.611 50 144.32 50C157.034 50 167.346 45.9203 167.346 36.9643C167.346 34.5833 166.627 32.5496 165.306 30.8509L155.722 30.8505ZM199.404 9.95285C199.827 10.419 200.193 10.9336 200.494 11.486C201.177 12.6979 201.587 14.1206 201.587 15.6085C201.587 20.2406 198.245 23.9863 193.333 23.9863C188.404 23.9863 185.08 20.2411 185.08 15.6085C185.08 11.0344 188.618 7.29251 193.228 7.24727H210.993C211.331 7.24727 211.607 6.96422 211.654 6.55541C211.682 6.35412 211.822 5.25595 211.648 4.35575C211.57 3.98554 211.323 3.76474 210.975 3.76474H197.41V1.89669C197.41 0.850813 196.518 0 195.402 0H189.25V3.76474H173.807C174.125 4.21962 176.022 7.11695 176.113 7.24727H181.936C178.953 9.38136 177.114 12.3405 177.114 15.6085C177.114 22.1149 183.646 27.3588 193.333 27.3588C199.846 27.3588 204.628 24.9865 207.422 21.433H218.653V34.1807H188.814V30.6268C188.814 29.5548 187.92 28.7102 186.807 28.7102H180.674V44.5822C180.674 46.5606 182.391 48.1847 184.475 48.1847H226.839V2.84877C226.839 1.78339 225.928 0.935479 224.83 0.935479H218.653V9.95327L199.404 9.95285ZM218.653 44.7017H189.911C189.308 44.7017 188.814 44.234 188.814 43.633V37.6628H218.653V44.7017ZM218.653 17.9472H209.207C209.418 17.2034 209.528 16.4074 209.528 15.6085C209.528 14.8772 209.432 14.153 209.259 13.4354H218.653V17.9472Z" fill="white"/>
</svg>
