<svg width="146" height="50" viewBox="0 0 146 50" fill="none" xmlns="http://www.w3.org/2000/svg">
<path d="M139.132 11.9997L132.178 27.8457L124.306 11.9997H118.255L129.425 33.9839L124.826 44.25H130.702L145.023 11.9997H139.132ZM114.905 36.4995H109.155V34.2122C107.067 36.049 104.369 37.0426 101.589 36.9997C94.7073 36.9997 89.3266 31.4004 89.3266 24.2471C89.3266 17.0939 94.7073 11.4995 101.589 11.4995C104.369 11.4565 107.067 12.4502 109.155 14.2869V11.9997H114.905V36.4995ZM109.83 24.2471C109.83 19.6288 106.605 16.1226 102.327 16.1226C98.0484 16.1226 94.8288 19.6288 94.8288 24.2471C94.8288 28.8654 98.0533 32.3765 102.327 32.3765C106.6 32.3765 109.83 28.8703 109.83 24.2666V24.2471ZM60.7524 44.25H66.75V34.421C68.8016 36.1264 71.3959 37.0411 74.0635 36.9997C80.9497 36.9997 86.3303 31.4004 86.3303 24.2471C86.3303 17.0939 80.9497 11.4995 74.0635 11.4995C71.2841 11.4553 68.5879 12.4492 66.5022 14.2869V11.9997H60.7524V44.25ZM73.3254 16.1226C77.6037 16.1226 80.8281 19.6288 80.8281 24.2471C80.8281 28.8654 77.6037 32.3765 73.3254 32.3765C69.047 32.3765 65.8273 28.8703 65.8273 24.2471C65.8273 19.624 69.0519 16.1226 73.3254 16.1226Z" fill="black"/>
<path d="M50 25C50 31.6304 47.3661 37.9893 42.6777 42.6777C37.9893 47.3661 31.6304 50 25 50C18.3696 50 12.0107 47.3661 7.32232 42.6777C2.63391 37.9893 0 31.6304 0 25C0 18.3696 2.63391 12.0107 7.32232 7.32232C12.0107 2.63391 18.3696 0 25 0C31.6304 0 37.9893 2.63391 42.6777 7.32232C47.3661 12.0107 50 18.3696 50 25ZM29.1814 13.2479V25.8207L20.4401 13.2479H13.2333V36.7521H20.8044V24.1745L29.5456 36.7521H36.7522V13.2479H29.1814Z" fill="black"/>
</svg>
