<svg width="200" height="50" viewBox="0 0 200 50" fill="none" xmlns="http://www.w3.org/2000/svg">
<path d="M200 43.822V50H0.00749098V43.822H72.5584V34.3031H65.7632C60.0808 34.3031 55.4723 29.7656 55.4723 24.1706C55.4723 18.5721 60.0808 14.038 65.7632 14.038L86.0732 14.0305C88.2558 14.0305 90.0265 12.2878 90.0265 10.14C90.0265 7.9889 88.2558 6.24616 86.0732 6.24616H57.5229V0.00749982L86.0732 0C91.7556 0 96.364 4.53411 96.364 10.1325C96.364 15.7276 91.7556 20.2651 86.0732 20.2651L65.7632 20.2842C63.5805 20.2842 61.8099 22.0269 61.8099 24.1781C61.8099 26.3258 63.5805 28.0685 65.7632 28.0685H94.7221V34.3031H79.293V43.822H200ZM139.625 34.3072V3.89047C139.625 1.33364 140.987 0.0115911 143.624 0.0115911H153.685V6.24685H148.274C146.81 6.24685 146.36 6.69344 146.36 8.12936V34.3072H139.625ZM35.6445 34.3004V3.89115C35.6445 1.33091 37.0065 0.0122725 39.6434 0.0122725H49.7034V6.24753H44.2934C42.8292 6.24753 42.3791 6.69412 42.3791 8.13004V34.3004H35.6445ZM6.28035 21.1569C6.28035 25.4033 9.77261 28.8465 14.0855 28.8465C18.395 28.8465 21.8906 25.4033 21.8906 21.1569C21.8906 16.9146 18.395 13.4714 14.0855 13.4714C9.77261 13.4714 6.28035 16.9146 6.28035 21.1569ZM0 0.0170453H6.73459V9.34641C8.9499 8.00171 11.4909 7.29038 14.0815 7.28966C16.6722 7.28894 19.2135 7.99886 21.4296 9.34231V0.0170453H28.1635L28.126 21.7065C28.126 28.9788 21.5808 35.0245 14.0855 35.0245C6.59089 35.0245 0.0456285 29.017 0.0456285 21.699L0 0.0170453ZM157.599 16.9098C157.599 7.5839 165.276 0.0272722 174.742 0.0272722H196.462V6.26185H174.742C168.764 6.26185 163.918 11.0346 163.918 16.9208C163.918 22.8076 168.764 27.5763 174.742 27.5763L196.871 27.5538V33.7883H174.742C165.276 33.7883 157.599 26.2317 157.599 16.9098ZM125.243 6.24889H105.641V0.0136367H131.977V10.6385C131.977 23.7676 119.942 34.4115 106.609 34.4115V28.1088C113.593 28.1088 120.241 24.0478 123.37 18.2067H105.641V11.9721H125.182L125.243 6.24889Z" fill="white"/>
</svg>
