<svg width="187" height="50" viewBox="0 0 187 50" fill="none" xmlns="http://www.w3.org/2000/svg">
<path d="M0 33.8526H18.7323V50H26.0611V33.8526H44.7976V29.2901H0V33.8526ZM10.9612 21.6718C12.4202 22.7954 14.1386 23.6891 16.0824 24.3446C18.0262 24.9915 20.1487 25.3235 22.3946 25.3235C24.6064 25.3235 26.7161 24.9915 28.6514 24.3446C30.5953 23.6934 32.3179 22.7911 33.7811 21.6718C35.2401 20.5056 36.414 19.1437 37.2732 17.62C38.1282 16.0836 38.5663 14.4195 38.5663 12.6617C38.5663 10.9465 38.1282 9.2952 37.2732 7.75451C36.414 6.23085 35.2443 4.86891 33.7769 3.70276C32.3222 2.58767 30.5995 1.67688 28.6599 1.00868C26.7246 0.340483 24.6149 0 22.3988 0C20.1445 0 18.022 0.336227 16.0867 1.00868C14.1428 1.67688 12.4202 2.58767 10.9612 3.70701C9.49802 4.86466 8.33257 6.22659 7.49464 7.75877C6.6567 9.2952 6.22709 10.9423 6.22709 12.6575C6.22709 14.4152 6.6567 16.0793 7.49464 17.6158C8.32832 19.1437 9.49802 20.5056 10.9612 21.6718ZM13.5558 12.6617C13.5558 11.602 13.7898 10.5592 14.2492 9.58461C14.706 8.61098 15.3507 7.73735 16.1462 7.01396C16.9374 6.25638 17.8774 5.65203 18.9407 5.21365C20.0041 4.78379 21.1696 4.56248 22.3946 4.56248C23.5855 4.56248 24.7255 4.78379 25.7931 5.21365C26.8565 5.65203 27.8007 6.25638 28.5919 7.01822C29.3885 7.74662 30.0407 8.61873 30.5145 9.58887C30.9909 10.5678 31.229 11.602 31.229 12.6617C31.229 13.7598 30.9909 14.811 30.5145 15.7942C30.0399 16.765 29.3861 17.6372 28.5876 18.3648C27.7922 19.1267 26.8522 19.7225 25.7931 20.1353C23.6323 20.978 21.025 20.9568 18.9365 20.1353C17.8731 19.7225 16.9331 19.1267 16.1377 18.3648C15.3431 17.6416 14.6998 16.7678 14.2449 15.7942C13.7898 14.8153 13.5558 13.7598 13.5558 12.6617ZM84.6272 0.863977H78.9233L79.2721 1.29384C79.4125 1.47259 79.4975 1.65986 79.5273 1.88543C79.6975 2.57916 79.774 3.67722 79.774 5.14981V27.8899C79.774 29.3114 78.9446 30.2647 77.2389 30.801C76.6732 30.9755 75.78 31.0989 74.589 31.167H59.0468C58.2174 31.167 57.9579 30.9797 57.8686 30.8648C57.6985 30.652 57.6134 30.2988 57.6134 29.8306V20.761H71.0416C71.8455 20.761 72.39 20.5993 72.7005 20.2715C73.0067 19.9566 73.1641 19.4671 73.1641 18.8287V4.23902C73.1641 3.59636 72.9982 3.11117 72.6707 2.78345C72.3389 2.46425 71.7902 2.30678 70.9906 2.30678H50.0337V6.86925H65.8354V16.1985H49.519L49.9997 17.1987C50.1953 17.7732 50.2931 18.484 50.2931 19.3097V32.397C50.2931 33.2184 50.5824 33.9334 51.1396 34.5165C51.9095 35.3209 53.1515 35.7252 54.8359 35.7252H73.1684L76.0692 35.6146C77.8047 35.4358 79.0297 35.1209 79.7868 34.6527V49.4552H87.1155V2.84729C87.107 1.96204 86.6774 0.91505 84.6272 0.863977ZM133.321 2.73664C133.321 1.88117 132.891 0.863977 130.841 0.863977H125.218L125.695 1.84712C125.89 2.56214 125.992 3.65594 125.992 5.09874V49.4552H133.321V20.9185H140.216V16.3645H133.321V2.73664ZM118.285 2.30678H95.9883V6.81393L112.258 6.80967C112.39 6.83946 112.5 6.89053 112.585 6.94161C112.585 6.94161 112.628 7.01822 112.564 7.33316C112.377 10.2315 111.824 12.9597 110.905 15.5048H96.2477V20.0672H108.761C105.665 25.3064 100.727 29.6348 93.9806 33.0226L93.7127 33.1588L95.7373 36.3253L95.9372 36.253C112.143 30.6605 120.378 19.8672 120.408 4.18795C120.403 3.32397 120.033 2.30678 118.285 2.30678ZM147.315 4.8221C147.579 5.49881 147.706 6.28192 147.706 7.13739V23.8721C147.706 24.834 148.059 25.6937 148.757 26.4215C149.663 27.3664 151.024 27.843 152.811 27.843H181.743V23.2848H156.413C155.46 23.2848 155.035 22.9018 155.035 22.0506V8.20991H181.487V3.65169H146.562L146.881 4.08155C147.111 4.37096 147.251 4.62206 147.315 4.8221ZM142.202 39.5855H187V44.1479H142.202V39.5855Z" fill="white"/>
</svg>
