<svg width="197" height="50" viewBox="0 0 197 50" fill="none" xmlns="http://www.w3.org/2000/svg">
<path d="M79.0756 27.6258L79.2625 27.7182L82.4743 23.4929L82.144 23.2707C76.1434 19.2676 71.4854 13.6151 71.4876 6.68091V2.06223H63.6949V6.68091C63.7016 13.9165 58.02 20.6542 52.9215 23.8773L52.7061 24.0071L55.9223 28.2373L56.1203 28.1427C60.1223 26.1618 65.4492 20.8062 67.6044 16.86C69.6604 20.56 74.7852 25.5418 79.0756 27.6258ZM0 32.9351H21.3786V48.4414H26.0678C28.0668 48.4347 29.2159 47.0782 29.2159 45.1213V32.9351H49.089V27.4547H0V32.9351ZM15.7634 11.0231H35.0754V16.372C35.0754 16.8778 34.6419 17.2911 34.1048 17.2911H16.7278C16.1929 17.2911 15.7634 16.8756 15.7634 16.372V11.0231ZM14.8743 22.5916H35.9912C40.3346 22.5871 42.0341 20.4018 42.0364 17.7636V1.01335H35.135V5.76668H15.7064V1.01335H8.81621V17.7636C8.82466 20.4018 10.5242 22.5871 14.8743 22.5916ZM94.0375 1.02444H86.8439V33.8347H91.1254C92.97 33.8298 94.0375 32.588 94.0375 30.9547V16.5125H100.589V10.4494H94.0375V1.02444ZM182.262 44.6178C178.408 44.6178 175.337 41.9973 175.334 38.812C175.334 35.624 178.408 33.0076 182.262 33.0031C186.103 33.008 189.176 35.624 189.189 38.812C189.176 41.9973 186.104 44.6178 182.262 44.6178ZM182.262 27.6196C174.52 27.6302 168.202 32.5991 168.194 38.812C168.202 45.0227 174.52 49.9911 182.262 50C189.998 49.9911 196.3 45.0222 196.317 38.812C196.3 32.5987 189.998 27.6302 182.262 27.6196ZM190.453 1.01335V10.1809H187.246V1.01335H180.704V25.5551H184.422C186.207 25.5551 187.246 24.348 187.246 22.7738V15.9893H190.453V25.5551H194.18C195.956 25.5551 197 24.348 197 22.7738V1.01378L190.453 1.01335ZM127.76 5.32001C131.795 5.32446 135 7.92312 135.011 11.0667C134.999 14.2107 131.795 16.8204 127.76 16.8204C123.72 16.8204 120.506 14.2107 120.497 11.0671C120.506 7.92311 123.72 5.32446 127.76 5.32001ZM127.76 22.1382C135.629 22.1293 142.066 17.2227 142.077 11.0671C142.066 4.916 135.629 0.00666667 127.76 0C119.89 0.00666667 113.447 4.91557 113.438 11.0667C113.447 17.2227 119.89 22.1293 127.76 22.1382ZM104.481 30.9982H151.032V25.5902H104.481V30.9982ZM119.461 42.7316V34.7538H111.877V44.2178C111.891 46.8538 113.585 49.0414 117.946 49.0502H146.029V43.6502H120.436C119.897 43.6502 119.461 43.2436 119.461 42.7311M166.457 22.7933C163.362 22.7933 161.299 20.4782 161.292 17.5653C161.299 14.6542 163.362 12.3418 166.457 12.3373C169.565 12.3418 171.628 14.6547 171.641 17.5653C171.628 20.4782 169.565 22.7933 166.457 22.7933ZM177.538 17.6707C177.538 14.6018 176.136 11.8516 173.725 10.0333H178.04V5.21913H170.124V1.01335H162.75V5.21913H154.776V10.0338H159.201C156.786 11.8516 155.38 14.6022 155.38 17.6711C155.389 23.1498 160.247 27.56 166.456 27.5756C172.572 27.56 177.538 23.1493 177.538 17.6707ZM70.6403 42.7405V32.4076H62.9664V44.2178C62.9753 46.8538 64.6789 49.0414 69.0245 49.0502H95.1492V43.6502H71.6087C71.0738 43.6502 70.6399 43.2436 70.6399 42.74" fill="white"/>
</svg>
