<svg width="208" height="50" viewBox="0 0 208 50" fill="none" xmlns="http://www.w3.org/2000/svg">
<path d="M160.45 41.1892H208V46.523H160.45V41.1892ZM171.69 6.55025H202.893V1.20614H165.548V29.8966H202.893V24.5525H171.69V6.55025ZM108.415 1.20614V6.60943H130.594V14.0752H108.415V19.4296H130.594V33.7337H136.886V1.20614H108.415ZM144.445 49.8894H150.695V17.9612H157.028V12.5579H150.695V0.0102814H144.445V49.8894ZM28.4018 21.9602V29.7474H46.6453V50H40.4126V35.1302H3.81263V29.7474H22.1896V21.9602H0V16.5853H40.1222V5.81729H4.49599V0.462897H46.3652V16.5466H50.8201V21.9602H28.4018ZM86.5774 1.19586H57.0734V26.129H86.5774V1.19586ZM80.3858 20.6846H63.2856V6.60943H80.3858V20.6846ZM101.833 49.7969H62.7024V31.4834H68.9249V44.4039H101.833V49.7969ZM95.1583 0H101.35V32.7307H95.1583V0Z" fill="white"/>
</svg>
