<svg width="208" height="50" viewBox="0 0 208 50" fill="none" xmlns="http://www.w3.org/2000/svg">
<path d="M208 1.35757H200.644V12.4728H197.1L197.103 1.35903H189.748L189.746 27.1609H197.1V16.9899H200.643V29.5059H207.996L208 1.35757ZM162.022 9.39373H187.563V4.90055H178.491L178.495 0H171.138V4.90055H160.271L161.901 9.39373H162.022ZM109.963 29.1106H157.59V24.6144H108.333L109.963 29.1106ZM146.37 11.1392C146.361 5.59722 140.625 1.18003 133.607 1.16809C126.588 1.18003 120.852 5.59871 120.843 11.1392C120.852 16.6796 126.588 21.0968 133.607 21.1057C140.625 21.0968 146.361 16.6782 146.37 11.1392ZM139.69 11.1406C139.685 13.9497 136.988 16.2694 133.607 16.2694C130.225 16.2694 127.527 13.9497 127.521 11.1392C127.527 8.32717 130.225 6.00743 133.607 6.00445C136.987 6.00743 139.685 8.32863 139.69 11.1406ZM83.1211 33.3876H103.914V28.5482H54.9051L56.5261 33.3876H75.6906V48.3903H83.1195L83.1211 33.3876ZM97.7756 24.0982L99.6268 20.3778L99.422 20.3285C99.4145 20.3255 96.0724 19.5394 92.3444 17.5493C88.6658 15.5877 84.6403 12.4668 83.0687 7.82292H97.4152V3.36251H61.4069L63.0279 7.82292H75.8237C74.2536 12.4668 70.2266 15.5877 66.5495 17.5493C62.8186 19.5394 59.4764 20.324 59.4719 20.3285L59.2656 20.3778L61.1153 24.0982L61.229 24.0893C71.2763 23.4195 77.9994 16.0933 79.447 14.3808C80.893 16.0918 87.6176 23.4209 97.6664 24.0893L97.7756 24.0982ZM51.7588 15.6428C51.7588 15.6428 52.5574 14.8447 51.7588 14.0496L48.1775 10.4768C48.1775 10.4768 47.3804 9.68166 46.5834 10.4768L43.5179 13.5349V2.12286H36.2161C36.2116 2.11838 36.2161 28.4572 36.2161 28.4572H43.5164V16.156L46.5819 19.2157C46.5819 19.2157 47.3804 20.0108 48.1775 19.2157L51.7588 15.6428ZM1.61944 27.0296H33.7846V22.5722H16.9514V14.1256H9.64951V22.5722H0L1.61944 27.0296ZM22.4498 20.2285H29.7517V3.16257L3.67109 3.16703L5.29057 7.62752H22.4513L22.4498 20.2285ZM15.7716 39.5635C15.7805 45.3038 21.726 49.8866 29.0054 49.8986C36.2864 49.8866 42.2334 45.3038 42.2394 39.5635C42.2334 33.8201 36.2864 29.2374 29.0054 29.227C21.726 29.2374 15.7805 33.8187 15.7716 39.565M22.6846 39.565C22.6906 36.6381 25.4944 34.2289 29.007 34.2289C32.5166 34.2289 35.3204 36.6381 35.3279 39.5635C35.3204 42.4874 32.5166 44.8936 29.007 44.8966C25.4929 44.8936 22.6906 42.4859 22.6846 39.5635M116.463 32.0464V43.742C116.528 44.8553 117.004 45.9051 117.8 46.6878C118.597 47.4706 119.656 47.9305 120.773 47.9786L152.051 47.9816V43.4973H124.221C124.042 43.4914 123.979 43.4048 123.913 43.2527C123.875 43.1477 123.855 43.0374 123.852 42.926L123.846 32.0464H116.463ZM162.969 19.9138C162.979 24.8814 168.117 28.8302 174.396 28.8391C180.677 28.8302 185.815 24.8799 185.824 19.9138C185.815 14.9461 180.678 10.993 174.396 10.984C168.116 10.993 162.979 14.9461 162.97 19.9138M168.974 19.9138C168.982 17.412 171.382 15.343 174.396 15.343C177.412 15.343 179.812 17.412 179.817 19.9138C179.812 22.414 177.412 24.4801 174.396 24.4831C171.383 24.4801 168.982 22.414 168.974 19.9138ZM178.797 39.5784C178.806 45.368 184.799 49.9925 192.143 50C199.484 49.9925 205.479 45.368 205.489 39.5784C205.479 33.7858 199.484 29.1688 192.143 29.1539C184.799 29.1688 178.805 33.7858 178.797 39.5784ZM185.766 39.5784C185.774 36.6306 188.599 34.2035 192.143 34.2006C195.684 34.2035 198.512 36.6321 198.519 39.5784C198.512 42.5247 195.684 44.9548 192.143 44.9578C188.599 44.9548 185.771 42.5262 185.766 39.5784Z" fill="white"/>
</svg>
