<svg width="293" height="50" viewBox="0 0 293 50" fill="none" xmlns="http://www.w3.org/2000/svg">
<path d="M8.19221 1.34766H0V49.0725H8.19221V1.34766Z" fill="white"/>
<path d="M19.5376 1.33301V49.0416H34.4538C47.1175 49.0416 53.1073 44.6645 53.124 35.9429C53.2171 33.4257 52.4331 30.952 50.9 28.925C49.3669 26.8979 47.1749 25.4371 44.6815 24.7805L44.1977 24.6341L44.6648 24.4551C46.8962 23.6934 48.8112 22.2415 50.1184 20.3205C51.4256 18.3994 52.0533 16.1145 51.906 13.8134C51.906 5.67754 46.1831 1.36555 34.6373 1.33301H19.5376ZM33.0356 27.9535C38.8752 27.9535 44.498 28.8647 44.5147 35.3408C44.5984 36.3725 44.4018 37.4075 43.9449 38.3416C43.488 39.2757 42.7868 40.0759 41.9119 40.6616C39.3769 41.9183 36.5398 42.4806 33.7029 42.2888H27.7298V28.0023H33.0356M35.7218 8.19966C38.0743 8.19966 43.6971 8.9807 43.7138 14.5293C43.8483 15.6967 43.5972 16.8755 42.997 17.894C42.3968 18.9125 41.4788 19.7176 40.3768 20.1919C37.7878 21.0303 35.0571 21.3729 32.3348 21.2007H27.7131V8.18339H35.7051" fill="white"/>
<path d="M99.0582 1.33265C96.4554 3.96866 77.0343 23.9666 77.0343 23.9666C77.0343 23.9666 98.1072 46.2588 100.777 49.0412H89.3477L70.227 27.5463V49.0575H62.0181V1.34892H70.227V20.582L88.48 1.26758L99.0582 1.33265Z" fill="white"/>
<path d="M191.49 28.7163V33.5978H171.585V28.7163H165.095V48.942H198.114V28.7163H191.49ZM191.49 44.0117H171.585V38.219H191.49V44.0117ZM178.559 22.7121C180.907 20.997 182.528 18.5017 183.114 15.699H191.457V26.0641H197.997V1.3311H191.457V11.0941H183.114C182.683 8.19933 181.101 5.58644 178.71 3.82067C176.038 1.865 172.76 0.859896 169.421 0.97238C166.082 1.08486 162.884 2.30817 160.356 4.439C159.069 5.51898 158.036 6.85733 157.327 8.36257C156.619 9.86781 156.252 11.5045 156.252 13.1606C156.252 14.8168 156.619 16.4534 157.327 17.9587C158.036 19.4639 159.069 20.8023 160.356 21.8822C162.839 23.9767 165.973 25.1932 169.252 25.335C172.531 25.4767 175.763 24.5354 178.426 22.6633L178.559 22.7121ZM164.978 18.6116C163.655 17.1319 162.952 15.2206 163.009 13.2582C162.942 11.3128 163.661 9.4194 165.011 7.98621C165.636 7.29788 166.408 6.75169 167.273 6.38618C168.138 6.02068 169.075 5.8448 170.017 5.87092C170.96 5.82767 171.9 5.99417 172.768 6.35783C173.635 6.72149 174.406 7.27277 175.022 7.96995C176.284 9.45116 176.944 11.3335 176.874 13.2582C176.936 15.2149 176.259 17.1257 174.972 18.6279C174.355 19.3287 173.586 19.8865 172.72 20.2609C171.854 20.6352 170.914 20.8167 169.967 20.792C169.021 20.8249 168.081 20.647 167.216 20.272C166.352 19.897 165.586 19.3347 164.978 18.6279V18.6116ZM143.605 1.34737V49.0559H150.079V1.36365L143.605 1.34737ZM110.669 7.20518H127.788V10.8175C127.676 16.3108 125.694 21.6119 122.154 25.8862C118.613 30.1604 113.716 33.1653 108.233 34.4277H107.966L111.303 38.4468H111.42C124 34.8508 134.412 23.4443 134.412 10.8826V2.51893H110.669V7.20518Z" fill="white"/>
<path d="M217.519 33.4863H210.895V48.8956H243.897V44.2907H217.519V33.4863Z" fill="white"/>
<path d="M237.474 3.05764C234.191 1.05939 230.399 0 226.529 0C222.659 0 218.867 1.05939 215.584 3.05764C214.123 3.97036 212.93 5.23765 212.123 6.73523C211.316 8.23281 210.921 9.90928 210.979 11.6003C210.936 13.2777 211.337 14.9375 212.144 16.4196C212.95 17.9017 214.135 19.156 215.584 20.0615C218.874 22.0399 222.663 23.0876 226.529 23.0876C230.394 23.0876 234.184 22.0399 237.474 20.0615C238.929 19.163 240.119 17.9102 240.927 16.4264C241.734 14.9427 242.131 13.2793 242.079 11.6003C242.136 9.90928 241.742 8.23281 240.935 6.73523C240.127 5.23765 238.935 3.97036 237.474 3.05764ZM232.902 16.612C231.045 17.882 228.831 18.5634 226.562 18.5634C224.293 18.5634 222.08 17.882 220.222 16.612C219.438 16.0226 218.806 15.2624 218.377 14.3921C217.948 13.5218 217.734 12.5657 217.753 11.6003C217.744 10.6224 217.962 9.65533 218.389 8.77078C218.817 7.88624 219.443 7.107 220.222 6.49097C222.033 5.12007 224.261 4.37599 226.554 4.37599C228.847 4.37599 231.074 5.12007 232.886 6.49097C233.67 7.10217 234.3 7.88045 234.728 8.76611C235.156 9.65178 235.371 10.6213 235.355 11.6003C235.38 12.5651 235.172 13.5221 234.745 14.3931C234.319 15.2642 233.688 16.0245 232.902 16.612Z" fill="white"/>
<path d="M248.202 25.4785H204.655V30.4764H248.202V25.4785Z" fill="white"/>
<path d="M287.128 33.5991C283.891 31.932 280.286 31.0605 276.625 31.0605C272.964 31.0605 269.359 31.932 266.122 33.5991C264.803 34.2521 263.696 35.2484 262.922 36.4776C262.148 37.7069 261.739 39.1211 261.739 40.5634C261.739 42.0057 262.148 43.4199 262.922 44.6492C263.696 45.8784 264.803 46.8747 266.122 47.5277C269.372 49.1526 272.973 50 276.625 50C280.278 50 283.878 49.1526 287.128 47.5277C288.437 46.8665 289.534 45.8673 290.3 44.6391C291.066 43.4109 291.472 42.001 291.472 40.5634C291.472 39.1258 291.066 37.7159 290.3 36.4877C289.534 35.2595 288.437 34.2603 287.128 33.5991ZM282.79 44.2571C280.891 45.2185 278.782 45.7203 276.642 45.7203C274.502 45.7203 272.393 45.2185 270.493 44.2571C269.793 43.9131 269.2 43.3917 268.778 42.7476C268.355 42.1034 268.118 41.3603 268.091 40.596C268.118 39.8147 268.354 39.054 268.776 38.3891C269.197 37.7242 269.789 37.178 270.493 36.8046C272.376 35.7904 274.491 35.2584 276.642 35.2584C278.792 35.2584 280.908 35.7904 282.79 36.8046C283.496 37.1755 284.09 37.721 284.512 38.3865C284.934 39.052 285.168 39.814 285.193 40.596C285.178 41.3695 284.947 42.1243 284.523 42.7784C284.099 43.4325 283.5 43.9609 282.79 44.3059V44.2571Z" fill="white"/>
<path d="M269.058 1.99902H254.259V6.2806H269.058V1.99902Z" fill="white"/>
<path d="M286.576 1.39746V12.3971H282.889V1.39746H276.632V28.3434H282.889V16.6928H286.576V30.1983H292.85V1.39746H286.576Z" fill="white"/>
<path d="M274.381 7.8252H251.656V12.0884H256.428C255.062 12.8829 253.926 14.0032 253.126 15.3439C252.326 16.6846 251.889 18.2016 251.856 19.7523C251.856 25.0406 256.862 29.3038 263.052 29.3038C269.242 29.3038 274.281 25.0406 274.281 19.7523C274.244 18.2004 273.804 16.6829 273.002 15.3423C272.199 14.0018 271.06 12.8821 269.692 12.0884H274.381V7.8252ZM263.052 25.4637C261.868 25.5721 260.679 25.3287 259.64 24.7655C258.601 24.2023 257.761 23.3457 257.231 22.3083C256.7 21.2709 256.504 20.1012 256.668 18.953C256.832 17.8048 257.348 16.7318 258.149 15.8752C258.95 15.0185 259.998 14.4182 261.155 14.1531C262.312 13.8881 263.524 13.9708 264.633 14.3903C265.741 14.8098 266.693 15.5464 267.364 16.5035C268.034 17.4605 268.393 18.5931 268.391 19.7523C268.455 21.1989 267.929 22.6113 266.929 23.6812C265.928 24.7512 264.535 25.392 263.052 25.4637Z" fill="white"/>
</svg>
