<svg width="304" height="50" viewBox="0 0 304 50" fill="none" xmlns="http://www.w3.org/2000/svg">
<path d="M28.262 36.7998C28.262 37.3207 27.9327 37.499 27.3621 37.499H22.3872C21.8092 37.499 21.6263 37.3207 21.6263 36.757V23.5649C21.6263 22.9514 21.1873 22.6232 20.5655 22.6232H7.52091C6.94295 22.6232 6.59909 22.9514 6.59909 23.5649V36.757C6.59909 37.3207 6.26987 37.499 5.74311 37.499H0.673078C0.197534 37.499 0 37.3207 0 36.7998V4.023C0 3.5093 0.197534 3.23105 0.673078 3.23105H5.74311C6.26987 3.23105 6.59909 3.5093 6.59909 4.023V16.7085C6.59909 17.3078 6.94295 17.5861 7.52091 17.5861H20.5655C21.1873 17.5861 21.6263 17.3078 21.6263 16.7085V4.023C21.6263 3.5093 21.8092 3.23105 22.3872 3.23105H27.3621C27.9327 3.23105 28.262 3.5093 28.262 4.023" fill="white"/>
<path d="M40.3146 37.9709C36.62 37.9709 34.7178 35.0813 34.7178 32.6056V12.2289C34.7178 11.6224 34.9519 11.3442 35.5225 11.3442H40.3146C40.7755 11.3442 41.1193 11.6224 41.1193 12.2289V31.9135C41.1193 32.47 41.3681 32.7483 42.0338 32.7483H50.7765C51.3545 32.7483 51.7496 32.47 51.7496 31.9135V12.2289C51.7496 11.6224 51.9764 11.3442 52.5543 11.3442H57.3317C57.8512 11.3442 58.195 11.6224 58.195 12.2289V41.9378C58.195 42.6798 57.9609 43.379 57.6171 44.0782L54.376 49.258C54.0907 49.7146 53.6591 50 53.1835 50H52.5543C51.9764 50 51.7496 49.6718 51.7496 49.1652V36.0231C51.7496 35.4523 51.4057 35.2312 50.879 35.3667L41.6973 37.8781C41.273 37.9709 40.7389 37.9709 40.3146 37.9709Z" fill="white"/>
<path d="M70.1252 37.9395C67.2061 37.9395 64.6235 35.6064 64.6235 32.5742V12.2403C64.6235 11.6338 64.865 11.3627 65.4356 11.3627H70.2715C70.7032 11.3627 71.0397 11.6338 71.0397 12.2403V31.9178C71.0397 32.4885 71.3251 32.7097 71.9835 32.7097H80.7481C81.3115 32.7097 81.6992 32.4885 81.6992 31.9178V12.2403C81.6992 11.6338 81.8894 11.3627 82.4601 11.3627H87.2448C87.7716 11.3627 88.1008 11.6338 88.1008 12.2403V36.8264C88.1008 37.333 87.7716 37.5185 87.2448 37.5185H82.4601C81.8894 37.5185 81.6992 37.333 81.6992 36.7694V36.0345C81.6992 35.4209 81.3115 35.1855 80.792 35.3781L71.6104 37.7968C71.1275 37.9395 70.5934 37.9395 70.1252 37.9395Z" fill="white"/>
<path d="M118.033 16.3947V36.8213C118.033 37.3207 117.689 37.5205 117.17 37.5205H112.378C111.814 37.5205 111.624 37.3207 111.624 36.7714V17.0867C111.624 16.4874 111.236 16.1592 110.673 16.1592H101.908C101.243 16.1592 100.957 16.4874 100.957 17.0867V36.7714C100.957 37.3207 100.628 37.5205 100.196 37.5205H95.3677C94.7898 37.5205 94.5557 37.3207 94.5557 36.8213V12.2351C94.5557 11.6358 94.7898 11.3576 95.3677 11.3576H100.196C100.628 11.3576 100.957 11.6358 100.957 12.2351V13.0271C100.957 13.5479 101.191 13.7762 101.908 13.5907L111.046 11.1649C111.522 11.0722 111.953 10.9437 112.436 10.9437C115.589 10.9437 118.033 13.498 118.033 16.3947Z" fill="white"/>
<path d="M140.611 31.8997V17.1094C140.611 16.4673 140.325 16.132 139.652 16.132H130.8C130.142 16.132 129.893 16.4673 129.893 17.1094V31.8997C129.893 32.4562 130.142 32.6916 130.8 32.6916H139.652C140.325 32.6916 140.611 32.4562 140.611 31.8997ZM123.491 32.5489V20.7981C123.491 18.2795 124.589 16.3745 126.886 15.1616L131.949 12.265C133.002 11.6086 134.056 11.3303 135.292 11.3303H139.696C140.325 11.3303 140.611 11.102 140.611 10.5455V0.885105C140.611 0.371407 140.845 0.000400543 141.328 0.000400543H146.208C146.778 0.000400543 147.012 0.371407 147.012 0.885105V36.7941C147.012 37.3078 146.778 37.4933 146.208 37.4933H141.328C140.845 37.4933 140.611 37.3078 140.611 36.7441V36.0021C140.611 35.3957 140.325 35.1602 139.696 35.3529L130.478 37.7787C129.944 37.9142 129.52 37.9142 129.037 37.9142C126.549 38.007 123.491 35.7667 123.491 32.5489Z" fill="white"/>
<path d="M169.611 31.9178V17.1489C169.611 16.4925 169.267 16.1572 168.652 16.1572H159.815C159.142 16.1572 158.893 16.4925 158.893 17.1489V31.9178C158.893 32.4885 159.142 32.7097 159.815 32.7097H168.652C169.267 32.7097 169.611 32.4885 169.611 31.9178ZM158.037 37.9395C155.023 37.9395 152.491 35.5565 152.491 32.5742V20.8304C152.491 18.3047 153.589 16.3998 155.835 15.1797L160.956 12.2902C162.009 11.6338 163.056 11.3627 164.248 11.3627H175.2C175.727 11.3627 176.012 11.6338 176.012 12.2403V36.8264C176.012 37.333 175.727 37.5256 175.2 37.5256H170.328C169.794 37.5256 169.611 37.333 169.611 36.7765V36.0345C169.611 35.4209 169.267 35.1855 168.652 35.3781L159.471 37.7968C158.944 37.9395 158.52 37.9395 158.037 37.9395Z" fill="white"/>
<path d="M188.856 36.7871C188.856 37.308 188.526 37.4863 188.044 37.4863H183.266C182.637 37.4863 182.454 37.308 182.454 36.7871V12.2223C182.454 11.6088 182.637 11.3234 183.266 11.3234H188.044C188.526 11.3234 188.856 11.6088 188.856 12.2223V36.7871ZM188.856 4.7095C188.856 5.27314 188.526 5.45864 188.044 5.45864H183.266C182.637 5.45864 182.454 5.27314 182.454 4.7095V0.892433C182.454 0.371597 182.637 0.000595093 183.266 0.000595093H188.044C188.526 0.000595093 188.856 0.371597 188.856 0.892433" fill="white"/>
<path d="M201.975 30.783V13.1175C201.975 10.4919 203.116 8.49421 205.472 7.14575L211.069 4.1135C212.064 3.49992 213.256 3.22166 214.361 3.22166H226.221C226.799 3.22166 227.077 3.49992 227.077 4.07069V7.46681C227.077 7.98764 226.799 8.20882 226.221 8.20882H209.628C209.05 8.20882 208.808 8.54415 208.808 9.14347V31.6249C208.808 32.2314 209.05 32.5096 209.628 32.5096H226.696C227.223 32.5096 227.559 32.7522 227.559 33.2088C227.559 33.7225 227.325 34.1506 226.799 34.4217L222.687 36.662C221.582 37.2685 220.441 37.5039 219.285 37.5039H208.962C205.567 37.5039 201.975 35.1209 201.975 30.783Z" fill="white"/>
<path d="M248.811 31.9178V17.1489C248.811 16.4925 248.468 16.1572 247.853 16.1572H239.008C238.335 16.1572 238.093 16.4925 238.093 17.1489V31.9178C238.093 32.4885 238.335 32.7097 239.008 32.7097H247.853C248.468 32.7097 248.811 32.4885 248.811 31.9178ZM237.237 37.9395C234.223 37.9395 231.692 35.5565 231.692 32.5742V20.8304C231.692 18.3047 232.789 16.3998 235.035 15.1797L240.157 12.2902C241.21 11.6338 242.264 11.3627 243.456 11.3627H254.401C254.928 11.3627 255.213 11.6338 255.213 12.2403V36.8264C255.213 37.333 254.928 37.5256 254.401 37.5256H249.528C249.002 37.5256 248.811 37.333 248.811 36.7765V36.0345C248.811 35.4209 248.468 35.1855 247.853 35.3781L238.671 37.7968C238.145 37.9395 237.72 37.9395 237.237 37.9395Z" fill="white"/>
<path d="M279.173 15.4551C279.173 15.9117 278.844 16.1543 278.317 16.1543H268.901C268.272 16.1543 268.03 16.4825 268.03 17.089V36.7665C268.03 37.323 267.65 37.5156 267.174 37.5156H262.339C261.768 37.5156 261.578 37.323 261.578 36.8093V12.2445C261.578 11.6381 261.768 11.3598 262.339 11.3598H267.174C267.65 11.3598 268.03 11.6381 268.03 12.2445V12.9865C268.03 13.4931 268.272 13.7285 268.901 13.7285C269.04 13.7285 269.223 13.7285 269.413 13.6358L272.186 11.8592C273.196 11.3598 274.249 11.0744 275.485 11.0744H278.317C278.844 11.0744 279.173 11.3598 279.173 11.8592" fill="white"/>
<path d="M297.255 31.8997V17.1094C297.255 16.4673 296.977 16.132 296.304 16.132H287.451C286.778 16.132 286.544 16.4673 286.544 17.1094V31.8997C286.544 32.4562 286.778 32.6916 287.451 32.6916H296.304C296.977 32.6916 297.255 32.4562 297.255 31.8997ZM280.135 32.5489V20.7981C280.135 18.2795 281.233 16.3745 283.545 15.1616L288.6 12.265C289.653 11.6086 290.707 11.3303 291.943 11.3303H296.348C296.977 11.3303 297.255 11.102 297.255 10.5455V0.885105C297.255 0.371407 297.504 0.000400543 297.972 0.000400543H302.844C303.43 0.000400543 303.664 0.371407 303.664 0.885105V36.7941C303.664 37.3078 303.43 37.4933 302.844 37.4933H297.972C297.504 37.4933 297.255 37.3078 297.255 36.7441V36.0021C297.255 35.3957 296.977 35.1602 296.348 35.3529L287.122 37.7787C286.595 37.9142 286.171 37.9142 285.681 37.9142C283.201 38.007 280.135 35.7667 280.135 32.5489Z" fill="white"/>
</svg>
