<svg width="195" height="50" viewBox="0 0 195 50" fill="none" xmlns="http://www.w3.org/2000/svg">
<path d="M10.1067 5.33708V0H17.6867V5.33708H28.0742V10.3933H22.4594C24.986 13.2022 26.3897 17.4157 26.3897 22.191C26.3897 31.4607 21.0556 38.4831 13.7564 38.4831C6.17632 38.2022 1.12297 31.4607 1.12297 21.9101C1.12297 17.1348 2.52668 12.9213 5.05336 10.1124H0V5.33708H10.1067ZM13.7564 10.3933C10.6682 10.3933 8.42226 14.8876 8.42226 22.191C8.42226 28.9326 10.6682 33.427 13.7564 33.427C16.8445 33.427 19.0905 28.9326 19.0905 22.191C19.0905 14.6067 16.8445 10.3933 13.7564 10.3933ZM40.4268 20.2247V50H32.8468V0H40.4268V15.1685H47.4454V20.2247H40.4268Z" fill="white"/>
<path d="M61.2015 30.618H73.5541C76.923 30.618 79.4497 30.8989 82.5379 29.2135V0H89.8372V15.1685H96.8557V20.2247H90.3986V50H82.8186V33.9888C80.2919 35.1124 76.923 35.3933 73.5541 35.3933H57.2711C53.9022 35.3933 51.6562 32.3034 51.6562 28.6517V2.24719H58.9555V28.6517C58.9555 29.7753 59.7978 30.618 61.2015 30.618Z" fill="white"/>
<path d="M115.666 20.2247H102.751V15.1685H117.631C118.192 13.2022 118.473 11.236 118.473 9.26966V7.58427H102.751V2.80899H126.053V7.58427C126.053 22.7528 115.666 35.1124 102.19 36.7978V31.7416C108.366 30.0562 112.858 25.2809 115.666 20.2247ZM140.932 20.2247V50H133.352V0H140.652V15.1685H147.67V20.2247H140.932Z" fill="white"/>
<path d="M149.635 37.641H194.273V42.6972H149.635V37.641ZM154.969 2.80957H188.658V7.86575H162.549V21.6298C162.549 23.0343 163.392 23.5961 165.076 23.5961H188.658V28.6523H160.865C157.496 28.6523 154.969 25.5624 154.969 21.9107V2.80957Z" fill="white"/>
</svg>
