<svg width="233" height="50" viewBox="0 0 233 50" fill="none" xmlns="http://www.w3.org/2000/svg">
<path d="M91.0406 50V38.053H82.271V31.1588H129.667V38.053H120.898V50H112.182V38.053H99.746V50H91.0281H91.0406ZM105.969 27.0548C94.7585 27.0548 83.8139 23.8996 83.8139 13.5302C83.8139 3.16079 94.7067 0 105.969 0C117.232 0 128.075 3.15518 128.075 13.5246C128.075 23.8939 116.971 27.0491 105.969 27.0491V27.0548ZM105.969 7.00089C100.817 7.00089 92.7406 7.68584 92.7406 13.5246C92.7406 19.3634 100.766 20.0482 105.969 20.0482C111.173 20.0482 119.148 19.47 119.148 13.5246C119.148 7.57916 111.071 7.00089 105.969 7.00089Z" fill="white"/>
<path d="M144.393 40.8434H147.795L148.537 13.3675H156.505L155.707 40.8434H160.382V47.7937H132.593V40.8434H136.47L135.727 13.3675H143.696L144.387 40.8434H144.393ZM133.393 2.68365H158.846V9.63401H133.393V2.68365ZM171.066 49.3152H162.78V27.4703H157.628V19.8912H162.78V1.89765H171.066V49.3207V49.3152ZM173.777 1.63379H182.062V49.5846H173.777V1.63379Z" fill="white"/>
<path d="M218.575 24.4718C218.575 35.5766 215.809 48.0008 202.898 48.0008C189.986 48.0008 187.169 35.79 187.169 24.4718C187.169 13.1535 189.986 1.10547 202.898 1.10547C215.809 1.10547 218.575 13.2097 218.575 24.4718ZM195.778 24.4718C195.778 31.7365 196.68 41.2077 202.846 41.2077C209.012 41.2077 209.966 31.7309 209.966 24.4718C209.966 17.2126 208.957 7.89302 202.846 7.89302C196.735 7.89302 195.778 17.2631 195.778 24.4718ZM232.971 49.5784H224.418V1.6332H232.971V49.584V49.5784Z" fill="white"/>
<path d="M5.96839 0.128906C2.5675 0.128906 0 2.55986 0 5.77679C0 8.99372 2.56197 11.4247 5.96839 11.4247C9.37482 11.4247 11.9311 8.94318 11.9311 5.77679C11.9311 2.61038 9.31232 0.128906 5.96839 0.128906Z" fill="white"/>
<path d="M10.8208 15.0508H0.986816V48.0959H10.8208V15.0508Z" fill="white"/>
<path d="M58.8411 2.11035L44.4956 28.8844L30.2408 2.28439L30.1501 2.11035H19.1997V48.0681H29.0335V19.5874L40.7263 41.3592L40.8227 41.5276H48.1627L59.8897 19.593V48.0681H69.7227V2.11035H58.8411Z" fill="white"/>
</svg>
