<svg width="184" height="50" viewBox="0 0 184 50" fill="none" xmlns="http://www.w3.org/2000/svg">
<path d="M25.1558 25.6254L28.8017 20.6775C26.095 19.3754 23.3329 17.3967 21.3029 14.7392C19.2708 12.1883 17.9175 9.06332 17.9175 5.36417V1.09293H11.1467V5.46875C11.1467 9.21916 9.84457 12.5513 7.76124 15.4158C5.6779 18.3337 2.91585 20.6242 0 22.2913L4.06209 27.0321C6.40584 25.6254 8.69628 23.8538 10.5725 21.8237C12.3975 19.8962 13.8533 17.7596 14.7392 15.7296C16.8758 19.6871 20.1567 22.9167 25.1558 25.6254ZM38.4904 16.4042H46.0425V10.9375H38.4884V0H32.0292V27.4996H38.4884L38.4904 16.4042ZM11.1467 49.3233H38.4884V29.3758H11.1467V49.3233ZM32.0313 34.8446V43.9079H17.5525V34.8446H32.0313ZM72.6562 26.4579L76.3021 21.4054C73.5421 20.0008 70.7821 18.1246 68.8546 15.625C66.8246 13.1767 65.5737 10.1563 65.5737 6.25V1.09293H58.6983V6.35663C58.6983 9.89788 57.5008 13.0229 55.5733 15.7316C53.6458 18.4916 50.7812 20.8866 47.605 22.97L51.6138 27.8154C54.1154 26.3041 56.3546 24.3254 58.2288 22.3979C60.0537 20.4704 61.4583 18.4404 62.2396 16.5641C63.0721 18.2312 64.4788 20.0541 66.3017 21.7725C68.1266 23.5974 70.3638 25.2112 72.6562 26.46V26.4579ZM81.615 27.76H88.0741V0H81.615V8.64501H72.5004V14.3742H81.615V27.76ZM87.2908 38.5929C87.2908 35.2608 85.9375 32.4475 83.6983 30.4175C81.4058 28.3854 78.2296 27.1879 74.4792 27.1879C70.7288 27.1879 67.6038 28.3854 65.3646 30.4175C63.0721 32.4475 61.77 35.2608 61.77 38.5929C61.77 42.0829 63.0721 44.8962 65.3646 46.9263C67.6038 48.8538 70.7288 50 74.4792 50C78.2296 50 81.4058 48.8538 83.6983 46.9263C85.9375 44.8962 87.2908 42.0829 87.2908 38.5929ZM80.9383 38.5929C80.9383 42.1875 78.2296 44.5825 74.4792 44.5825C70.7288 44.5825 68.1246 42.1875 68.1246 38.595C68.1246 35.0517 70.7288 32.6567 74.4792 32.6567C76.3533 32.6567 77.9158 33.2821 79.1134 34.3237C79.6912 34.8744 80.1509 35.5368 80.4646 36.2708C80.7784 37.0047 80.9395 37.7948 80.9383 38.5929ZM95.0521 29.22L98.7492 34.2704C105.157 31.1454 110.468 27.2925 114.218 22.1354C117.969 17.0829 120.103 10.6771 120.261 2.5529H98.6467V8.02165H113.698C113.539 9.71735 113.208 11.3924 112.709 13.0208L96.6658 13.6462L97.7608 19.3221L110 18.3337C109.375 19.2708 108.594 20.1033 107.812 20.9379C104.532 24.3213 100.103 26.9254 95.0521 29.2179V29.22ZM131.199 19.3754H138.751V13.9579H131.199V0H124.688V43.6967H131.199V19.3754ZM177.032 24.7396V19.2708H153.906V7.65666H176.77V2.23917H147.447V24.7396H177.032ZM140.728 38.6462H183.331V33.28H140.73L140.728 38.6462Z" fill="white"/>
</svg>
