<svg width="143" height="50" viewBox="0 0 143 50" fill="none" xmlns="http://www.w3.org/2000/svg">
<mask id="mask0_256_1058" style="mask-type:luminance" maskUnits="userSpaceOnUse" x="0" y="0" width="143" height="50">
<path d="M0 0H142.857V50H0V0Z" fill="white"/>
</mask>
<g mask="url(#mask0_256_1058)">
<path d="M97.1129 43.0187L108.229 1.55155H128.1L119.167 34.9144H142.857L139.116 48.8744H101.409C97.5044 48.8744 96.0801 46.9215 97.1229 43.0173L97.1129 43.0187ZM46.7672 31.9458C41.4758 34.2901 32.9229 36.0887 27.0958 35.9558C18.2172 35.7544 12.0172 32.9701 11.9115 31.1415C11.8544 30.0701 12.8301 29.113 14.0072 29.1815C14.8787 29.2287 15.6815 29.8216 16.3501 30.053C21.2687 32.233 27.1815 32.903 33.2858 31.9944C46.6901 29.4773 50.8615 23.4401 52.0101 17.3373C54.1244 5.97869 44.8529 -0.481309 34.1858 0.0258339C19.3744 0.728691 6.47722 9.70155 1.67437 24.5216C-3.93278 40.9873 5.10865 50.4215 20.0729 50.4215C32.8558 50.4215 39.8301 47.6758 42.8058 46.7001L46.7572 31.9458H46.7672ZM33.8787 16.3787C32.8172 20.3501 31.4401 23.5644 28.7701 23.5644C26.1001 23.5644 26.4558 20.3501 27.5172 16.3787C28.5786 12.4087 29.9744 9.19298 32.6258 9.19298C35.2758 9.19298 34.9401 12.4087 33.8787 16.3787ZM76.2644 34.9115H95.0001L91.2572 48.8715H51.4072C46.5372 48.8715 45.6572 45.5601 49.4458 41.5144L74.4372 14.8001H56.6801L60.2287 1.54869H98.6344C103.504 1.54869 104.384 4.85869 100.596 8.90583L76.2644 34.9115Z" fill="black"/>
</g>
</svg>
