<svg width="169" height="52" viewBox="0 0 169 52" fill="none" xmlns="http://www.w3.org/2000/svg">
<path fill-rule="evenodd" clip-rule="evenodd" d="M25.7968 0C11.5513 0 0 9.11969 0 20.3772C0 27.6097 4.78406 33.9585 11.9686 37.5819L9.53815 46.656C9.49328 46.7893 9.48692 46.9326 9.5198 47.0694C9.55267 47.2062 9.62345 47.331 9.724 47.4294C9.8497 47.5603 10.0208 47.6381 10.2021 47.6468C10.3834 47.6555 10.5612 47.5945 10.6988 47.4761L21.1518 40.4151C22.6901 40.6387 24.2423 40.7525 25.7968 40.7557C40.0434 40.7557 51.5947 31.6348 51.5947 20.3724C51.5947 9.11011 40.0434 0 25.7968 0Z" fill="#040000"/>
<path d="M73.3319 37.3026V50.4618H63.9604V1.93772H70.5718L71.7277 5.01798C73.7168 3.02881 76.7335 0.910156 81.6123 0.910156C90.7908 0.910156 95.1612 7.77811 95.0904 18.8822C95.0904 30.4994 88.352 37.9465 78.7239 37.9465C76.906 37.9712 75.0929 37.7547 73.3319 37.3026ZM73.3319 9.76607V30.7548C74.3331 30.8755 75.3403 30.94 76.3486 30.9478C83.0236 30.9478 85.5919 26.2621 85.5919 18.881C85.5919 12.3979 83.8581 8.48313 78.5309 8.48313C76.7983 8.48313 74.8727 8.9963 73.3319 9.76607Z" fill="#040000"/>
<path d="M115.497 15.6079H120.824V14.452C120.824 10.6008 118.642 8.8035 114.856 8.8035C111.967 8.8035 108.244 9.64279 105.228 11.1152L102.66 4.82396C105.997 2.51346 111.133 0.90918 115.69 0.90918C124.676 0.90918 129.553 5.65848 129.553 14.7086V36.9815H122.943L121.984 34.0295C118.196 36.7873 114.731 37.9443 111.586 37.9443C104.718 37.9443 100.867 33.8365 100.867 26.905C100.863 19.5275 105.997 15.6079 115.497 15.6079ZM120.824 27.9961V21.5766H116.523C111.709 21.5766 109.271 23.3103 109.271 26.7755C109.271 29.4133 110.619 30.6915 113.378 30.6915C115.947 30.6915 119.22 29.4073 120.824 27.9961Z" fill="#040000"/>
<path d="M157.922 33.3868C154.649 42.1168 150.734 48.4716 145.021 52.0003L139.244 46.6731C142.582 43.7847 144.956 40.961 147.011 37.1745L134.558 3.22084L143.866 0.717297L151.825 28.2538L159.719 0.583008L168.898 3.1513L157.922 33.3868Z" fill="#040000"/>
</svg>
