<svg width="219" height="50" viewBox="0 0 219 50" fill="none" xmlns="http://www.w3.org/2000/svg">
<mask id="mask0_256_599" style="mask-type:luminance" maskUnits="userSpaceOnUse" x="0" y="0" width="219" height="50">
<path d="M0 0H218.328V50H0V0Z" fill="white"/>
</mask>
<g mask="url(#mask0_256_599)">
<path fill-rule="evenodd" clip-rule="evenodd" d="M169.468 39.6586H218.328V43.2432H169.468V39.6586ZM19.8211 32.2266H28.4966C30.7859 41.7021 42.0624 46.0928 46.1991 46.6969L44.0417 49.8717C39.8131 49.3592 30.1854 46.3044 24.1589 39.7468C18.1305 46.3044 8.50081 49.3592 4.274 49.8717L2.11657 46.6969C6.25154 46.0928 17.5223 41.7021 19.8211 32.2266ZM114.002 31.8868V31.957L113.96 31.9019L114.002 31.8868ZM115.849 1.88281H144.172C144.213 5.25021 143.864 8.30304 143.125 11.0413C142.386 13.7793 141.35 16.2541 140.016 18.4647C138.682 20.6758 137.102 22.6486 135.275 24.3832C133.448 26.1181 131.488 27.6401 129.395 28.9498C127.301 30.2593 125.136 31.3902 122.899 32.3426C120.662 33.295 118.456 34.1114 116.28 34.7916L114.002 32.1386C116.465 31.118 118.661 30.0382 120.59 28.8987C122.519 27.7592 124.223 26.5686 125.7 25.3272C127.178 24.0855 128.471 22.7932 129.58 21.4495C130.688 20.1061 131.652 18.737 132.473 17.3424H115.787V13.9239H134.013C134.669 12.3593 135.121 10.8456 135.367 9.38302C135.614 7.92044 135.757 6.55988 135.798 5.30133H115.849V1.88281ZM173.787 1.87104H213.471V5.45595H181.52V22.5958C181.52 23.5868 182.315 24.3798 183.307 24.3798H214.087V27.9662H177.352C175.386 27.9662 173.787 26.3616 173.787 24.4025V1.87104ZM4.18217 0.845595H44.0646V12.9241H11.9069V16.0571C11.9069 17.0539 12.7158 17.8638 13.7122 17.8638H44.74V21.4294H28.2868V26.3422H48.9288V29.929H0V26.3422H20.5198V21.4294H7.76632C5.78856 21.4294 4.18217 19.8172 4.18217 17.8544V9.32421H36.3302V4.43413H4.18217V0.845595ZM96.2855 0.123182H103.771V50H96.2855V0.123182ZM151.023 0.0641574H158.819V15.4018H166.932V19.0075H158.819V49.9904H151.023V0.0641574ZM84.3462 0H91.8358V49.8766H84.3445L84.3462 34.406C83.0248 35.2388 80.9803 35.6809 78.4538 35.6809H61.8394C59.8559 35.6809 58.2515 34.0763 58.2515 32.1019V1.86548H79.6799V5.45402H65.9974V30.2877C65.9974 31.2843 66.8065 32.0906 67.8065 32.0906H78.4538C80.877 32.0906 82.516 31.6979 84.3462 30.9794V20.4123H74.9767V15.972H84.3462V0Z" fill="white"/>
</g>
</svg>
