<svg width="204" height="50" viewBox="0 0 204 50" fill="none" xmlns="http://www.w3.org/2000/svg">
<path d="M37.6619 33.5392V6.70691C37.6619 4.89997 37.3535 3.97246 36.3707 2.88937C35.7512 2.1141 36.1671 1.44301 36.9382 1.44301H45.7622V33.5392H37.6619ZM46.6374 43.5482V49.3803H17.1806C10.9383 49.3803 8.46078 47.7811 8.46078 42.5692V35.0864C8.46078 34.0547 8.10093 33.2795 7.37722 32.404C6.75834 31.6288 7.1736 30.9056 7.8933 30.9056H16.6652V41.4855C16.6652 43.0848 17.1806 43.5482 18.7789 43.5482H46.6374ZM12.6928 7.48217C12.6928 5.7794 12.5887 4.84856 11.6093 3.76479C10.9904 2.99354 11.4016 2.26969 12.1254 2.26969H21.0488V9.13286C21.0488 15.8919 27.6549 19.865 33.6375 21.8763L31.4196 26.0571C30.748 27.2957 28.2224 26.8283 23.7827 24.0945C21.2564 22.5473 18.831 20.4847 17.2327 18.3185C15.3219 21.0522 12.9485 23.3226 10.2146 25.1295C7.06945 27.1922 3.04503 29.1548 2.37406 27.8633L0 23.3747C6.86182 20.689 12.6928 16.2004 12.6928 9.64836V7.48217ZM87.8557 34.2631V6.70691C87.8557 4.89997 87.6 4.07663 86.6173 2.88937C85.9457 2.11811 86.3609 1.44301 87.1327 1.44301H95.956V13.6222H101.835V19.4536H95.956V34.2631H87.8557ZM67.4786 23.8902C71.039 23.8902 73.1013 21.1564 73.1013 17.8544C73.1013 14.3453 71.039 11.6596 67.4786 11.6596C63.8661 11.6596 61.8559 14.3453 61.8559 17.8544C61.8559 21.1564 63.8661 23.8902 67.4786 23.8902ZM96.5756 43.5522V49.3803H67.6341C61.3885 49.3803 58.9143 47.7811 58.9143 42.5692V37.1524C58.9143 36.1174 58.5511 35.3462 57.8315 34.4667C57.2119 33.6955 57.6238 32.9716 58.3469 32.9716H67.1187V41.4855C67.1187 43.0848 67.6342 43.5522 69.2331 43.5522H96.5756ZM63.7139 5.2639C63.7139 3.45696 63.6097 2.62961 62.627 1.44301C61.9594 0.671091 62.3713 0 63.1464 0H71.9664V5.7794H83.6758V11.4553H78.2607C79.859 13.2622 80.8384 15.4805 80.8384 18.1108C80.8384 24.614 76.0428 29.5661 67.4786 29.5661C58.9664 29.5661 54.1188 24.614 54.1188 18.1108C54.1188 15.4284 55.0461 13.2102 56.5923 11.4553H51.1773V5.7794H63.7139V5.2639ZM138.258 50V6.75899C138.258 4.95205 138.002 4.12872 137.019 2.94145C136.347 2.16619 136.763 1.44301 137.534 1.44301H146.358V18.2664H153.064V24.1987H146.358V50H138.258ZM130.676 12.6426C130.676 22.8071 127.475 30.5457 120.77 37.101C113.496 44.2199 109.935 44.6834 109.06 43.6003L105.703 39.3714C113.085 35.0383 118.448 29.93 120.925 23.2191H104.468V17.439H122.316C122.524 15.5847 122.624 13.6222 122.624 11.6116V9.18494H105.603V3.40554H129.437C130.261 3.40554 130.676 3.81688 130.676 4.59214V12.6426ZM159.425 3.76546H197.91V9.54486H168.557V21.3607C168.557 23.167 169.228 24.61 171.654 24.61H198.17V30.3901H169.847C163.709 30.3901 160.2 28.3274 160.2 23.1149V9.07743C160.2 7.2745 159.94 6.44716 158.962 5.26056C158.342 4.48864 158.654 3.76546 159.425 3.76546ZM204 45.4553H154.833V39.6238H204V45.4553Z" fill="white"/>
</svg>
