<svg width="184" height="50" viewBox="0 0 184 50" fill="none" xmlns="http://www.w3.org/2000/svg">
<path d="M83.3467 2.04186H91.3656V8.35049H98.5775V2.04186H106.545V27.3264H83.3467V2.04186ZM108.845 50.0001C96.4447 50.0001 86.5555 48.5448 86.5555 40.0437C86.5555 31.3927 96.4447 29.8811 108.845 29.8811C121.244 29.8811 131.832 31.1304 131.832 40.0437C131.832 48.7884 121.296 50.0001 108.845 50.0001ZM91.3656 21.0678H98.5775V14.5717H91.3656V21.0678ZM108.845 36.3459C99.7047 36.3459 95.5352 36.8144 95.5352 39.9937C95.5352 43.173 99.7047 43.5353 108.845 43.5353C117.715 43.5353 122.794 43.0668 122.794 39.9937C122.794 36.8144 117.715 36.3459 108.845 36.3459ZM131.262 28.7818H122.935V17.5387H118.452V27.7137H110.125V1.74828H118.452V10.6116H122.935V1.49219H131.262V28.7818Z" fill="white"/>
<path d="M136.75 40.2253H183.359V47.3147H136.75V40.2253ZM139.21 2.27344H179.618V35.5844H170.748V25.7279H139.21V18.8571H170.748V9.1505H139.21V2.27344Z" fill="white"/>
<path d="M6.00137 0C2.57476 0 0 2.40476 0 5.62155C0 8.83834 2.56195 11.2431 6.00137 11.2431C6.80057 11.3169 7.60676 11.227 8.36827 10.9793C9.12979 10.7315 9.82984 10.3314 10.4236 9.80456C11.0174 9.2777 11.4918 8.6357 11.8164 7.91969C12.141 7.20367 12.3086 6.42944 12.3086 5.64656C12.3086 4.86369 12.141 4.08941 11.8164 3.3734C11.4918 2.65738 11.0174 2.0154 10.4236 1.48854C9.82984 0.961676 9.12979 0.561558 8.36827 0.313834C7.60676 0.0661108 6.80057 -0.0237669 6.00137 0.0499611" fill="white"/>
<path d="M10.8819 14.7842H0.986328V47.5142H10.8819V14.7842Z" fill="white"/>
<path d="M59.1815 1.9668L44.7513 28.4881L30.4172 2.14171L30.3211 1.9668H19.3047V47.4828H29.2002V19.275L40.966 40.8368L41.0557 41.0117H48.4469L60.2383 19.2875V47.4828H70.1274V1.9668H59.1815Z" fill="white"/>
</svg>
