<?xml version="1.0" encoding="UTF-8"?><svg id="_레이어_2" xmlns="http://www.w3.org/2000/svg" xmlns:xlink="http://www.w3.org/1999/xlink" viewBox="0 0 507 133"><defs><style>.cls-1{fill:url(#_무제_그라디언트);}.cls-2{fill:#002870;}.cls-3,.cls-4{fill:none;}.cls-5{fill:#444;}.cls-6{fill:#00afec;}.cls-4{stroke:#444;stroke-width:2px;}.cls-7{fill:#0075c2;}.cls-8{clip-path:url(#clippath);}</style><clipPath id="clippath"><rect class="cls-3" width="507" height="133"/></clipPath><linearGradient id="_무제_그라디언트" x1="-283.78" y1="597.25" x2="-282.78" y2="597.25" gradientTransform="translate(36725.66 71033.4) scale(128.81 -118.81)" gradientUnits="userSpaceOnUse"><stop offset=".2" stop-color="#002870"/><stop offset=".81" stop-color="#0075c2"/></linearGradient></defs><g id="_레이어_1-2"><g class="cls-8"><path id="_패스_34584" class="cls-6" d="M252.94,16.82l18.73,10.81c2.71,1.37,5.9,1.37,8.61,0l18.73-10.81c2.38-1.37,2.38-3.6,0-4.97l-18.72-10.82c-2.71-1.37-5.9-1.37-8.61,0l-18.73,10.81c-2.38,1.37-2.38,3.6,0,4.97h0Z"/><path id="_패스_34585" class="cls-6" d="M219.86,16.82l-18.73,10.81c-2.71,1.37-5.9,1.37-8.61,0l-18.73-10.81c-2.38-1.37-2.38-3.6,0-4.97l18.73-10.82c2.71-1.37,5.9-1.37,8.61,0l18.73,10.81c2.38,1.37,2.38,3.6,0,4.97h0Z"/><path id="_패스_34586" class="cls-6" d="M201.13,98.93c21.99,11.96,48.55,11.96,70.54,0,1.33-.66,2.45-1.69,3.23-2.95l-24.69-14.26c-.73,1.25-1.91,2.18-3.3,2.58-3.4,1.06-6.96,1.56-10.52,1.49-3.56.07-7.11-.43-10.51-1.49-1.39-.41-2.57-1.33-3.3-2.58l-24.69,14.26c.78,1.26,1.9,2.28,3.23,2.95h.01Z"/><path id="_패스_34587" class="cls-2" d="M274.91,95.98c.76-1.38,1.13-2.94,1.07-4.51h0V28.66c-1.5.03-2.99-.32-4.31-1.03l-18.73-10.81c-1-.45-1.68-1.39-1.78-2.48v62.54h0c.1,1.67-.23,3.34-.94,4.85l24.69,14.26h0Z"/><path id="_패스_34588" class="cls-7" d="M197.9,95.98c-.76-1.38-1.13-2.94-1.07-4.51h0V28.66c1.5.03,2.99-.32,4.31-1.03l18.73-10.81c1-.44,1.68-1.39,1.78-2.48v62.54h0c-.1,1.67.23,3.34.94,4.85l-24.69,14.26h0Z"/><path id="_패스_34589" class="cls-1" d="M236.4,133.13c-20.5.03-40.5-6.33-57.21-18.21-4.51-3.2-7.2-8.39-7.19-13.92V14.33c.1,1.09.78,2.04,1.78,2.49l18.73,10.81c1.32.71,2.81,1.06,4.31,1.03v62.83h0c0,3.21,1.06,5.69,4.31,7.45,21.99,11.96,48.55,11.96,70.54,0,3.25-1.76,4.31-4.24,4.31-7.46h0V28.67c1.5.03,2.99-.32,4.31-1.03l18.73-10.81c1-.45,1.69-1.4,1.79-2.49v86.67c0,5.53-2.68,10.72-7.19,13.92-16.71,11.88-36.71,18.24-57.21,18.21h0Z"/><path class="cls-5" d="M69.32,64.88c.45.61.68,1.37.68,2.28s-.23,1.68-.68,2.32c-.45.64-1.13.96-2.04.96h-26.96v10h-7.84v-10H5.52c-.91,0-1.59-.32-2.04-.96-.45-.64-.68-1.41-.68-2.32s.23-1.67.68-2.28c.45-.61,1.13-.92,2.04-.92h61.76c.91,0,1.59.31,2.04.92ZM59.56,78.28c.88.85,1.32,2.43,1.32,4.72v5.92c0,2.29-.44,3.87-1.32,4.72-.88.85-2.49,1.28-4.84,1.28H20.88c-.85,0-1.28.4-1.28,1.2v3.28c0,.8.43,1.2,1.28,1.2h39.12c.91,0,1.57.32,2,.96.43.64.64,1.36.64,2.16,0,.85-.21,1.59-.64,2.2-.43.61-1.09.92-2,.92H18c-2.35,0-3.96-.43-4.84-1.28-.88-.85-1.32-2.43-1.32-4.72v-5.92c0-2.29.44-3.87,1.32-4.72.88-.85,2.49-1.28,4.84-1.28h33.84c.85,0,1.28-.4,1.28-1.2v-3.2c0-.85-.43-1.28-1.28-1.28H14.24c-.91,0-1.56-.31-1.96-.92-.4-.61-.6-1.35-.6-2.2,0-.8.2-1.52.6-2.16.4-.64,1.05-.96,1.96-.96h40.48c2.35,0,3.96.43,4.84,1.28ZM36.4,33.56c7.68,0,13.65,1.03,17.92,3.08,4.27,2.05,6.4,5.29,6.4,9.72s-2.13,7.75-6.4,9.8c-4.27,2.05-10.24,3.08-17.92,3.08s-13.65-1.03-17.92-3.08c-4.27-2.05-6.4-5.32-6.4-9.8s2.13-7.67,6.4-9.72c4.27-2.05,10.24-3.08,17.92-3.08ZM36.4,39.88c-5.76,0-9.93.56-12.52,1.68-2.59,1.12-3.88,2.72-3.88,4.8s1.29,3.69,3.88,4.84c2.59,1.15,6.76,1.72,12.52,1.72s9.93-.57,12.52-1.72c2.59-1.15,3.88-2.76,3.88-4.84s-1.29-3.68-3.88-4.8c-2.59-1.12-6.76-1.68-12.52-1.68Z"/><path class="cls-5" d="M97.44,35.8c1.07,0,2.01.27,2.84.8.83.53,1.24,1.39,1.24,2.56v8.08c0,2.67.41,4.96,1.24,6.88.83,1.92,2.2,3.73,4.12,5.44,1.87,1.6,3.6,3.04,5.2,4.32,1.6,1.28,3.09,2.45,4.48,3.52.91.75,1.36,1.57,1.36,2.48s-.29,1.73-.88,2.48c-.53.75-1.25,1.27-2.16,1.56-.91.29-1.81.09-2.72-.6-1.28-.91-2.68-1.99-4.2-3.24-1.52-1.25-3.13-2.6-4.84-4.04-1.92-1.71-3.27-3.04-4.04-4-.77-.96-1.27-1.89-1.48-2.8h-.08c-.21.91-.71,1.89-1.48,2.96-.77,1.07-2.17,2.48-4.2,4.24-1.71,1.49-3.41,2.92-5.12,4.28-1.71,1.36-3.41,2.65-5.12,3.88-.91.69-1.83.89-2.76.6-.93-.29-1.67-.81-2.2-1.56-.59-.75-.89-1.6-.92-2.56-.03-.96.44-1.81,1.4-2.56,1.87-1.39,3.68-2.77,5.44-4.16,1.76-1.39,3.57-2.91,5.44-4.56,1.92-1.71,3.29-3.52,4.12-5.44.83-1.92,1.24-4.21,1.24-6.88v-8.32c0-1.17.41-2.03,1.24-2.56.83-.53,1.77-.8,2.84-.8ZM90.64,80.12c1.01,0,1.93.27,2.76.8.83.53,1.24,1.39,1.24,2.56v13.52c0,.59.12,1,.36,1.24.24.24.68.36,1.32.36h35.2c1.01,0,1.75.35,2.2,1.04.45.69.68,1.52.68,2.48,0,.91-.23,1.71-.68,2.4-.45.69-1.19,1.04-2.2,1.04h-38.8c-2.35,0-3.96-.43-4.84-1.28-.88-.85-1.32-2.43-1.32-4.72v-16.08c0-1.17.41-2.03,1.24-2.56.83-.53,1.77-.8,2.84-.8ZM128.48,32.76c1.07,0,2,.27,2.8.8.8.53,1.2,1.39,1.2,2.56v17.12h8.8c1.07,0,1.83.35,2.28,1.04.45.69.68,1.49.68,2.4,0,1.01-.23,1.85-.68,2.52-.45.67-1.21,1-2.28,1h-8.8v23.28c0,1.17-.4,2.03-1.2,2.56-.8.53-1.73.8-2.8.8s-2-.27-2.8-.8c-.8-.53-1.2-1.39-1.2-2.56v-47.36c0-1.17.4-2.03,1.2-2.56.8-.53,1.73-.8,2.8-.8Z"/><path class="cls-5" d="M354.76,62.2c1.17,0,2.04.41,2.6,1.24.56.83.84,1.83.84,3s-.28,2.17-.84,3c-.56.83-1.43,1.24-2.6,1.24h-21.28c-1.17,0-2.04-.41-2.6-1.24s-.84-1.83-.84-3,.28-2.17.84-3,1.43-1.24,2.6-1.24h21.28Z"/><path class="cls-5" d="M363.96,42.68c0-1.07.29-2.03.88-2.88.59-.85,1.49-1.28,2.72-1.28h28.16c1.23,0,2.13.43,2.72,1.28.59.85.88,1.81.88,2.88s-.29,2.03-.88,2.88c-.59.85-1.49,1.28-2.72,1.28h-1.52v27.84l2.16-.24c1.23-.16,2.19.12,2.88.84.69.72,1.09,1.61,1.2,2.68.11,1.12-.08,2.16-.56,3.12-.48.96-1.25,1.49-2.32,1.6-2.4.27-4.73.48-7,.64-2.27.16-4.6.28-7,.36-2.4.08-4.93.12-7.6.12h-8.88c-1.23,0-2.13-.43-2.72-1.28-.59-.85-.88-1.81-.88-2.88s.29-2.03.88-2.88c.59-.85,1.49-1.28,2.72-1.28h2.88v-28.64h-2.4c-1.23,0-2.13-.43-2.72-1.28-.59-.85-.88-1.81-.88-2.88ZM379,75.48h3.12c1.01,0,2.03-.05,3.04-.16v-28.48h-6.16v28.64ZM412.28,65.08v29.84c0,1.39-.48,2.4-1.44,3.04-.96.64-2.03.96-3.2.96s-2.24-.32-3.2-.96-1.44-1.65-1.44-3.04v-57.76c0-1.39.48-2.4,1.44-3.04s2.03-.96,3.2-.96,2.24.32,3.2.96c.96.64,1.44,1.65,1.44,3.04v19.28h5.76v-20.08c0-1.39.48-2.4,1.44-3.04.96-.64,2.03-.96,3.2-.96s2.32.32,3.28.96c.96.64,1.44,1.65,1.44,3.04v61.92c0,1.39-.48,2.4-1.44,3.04-.96.64-2.05.96-3.28.96s-2.24-.32-3.2-.96c-.96-.64-1.44-1.65-1.44-3.04v-33.2h-5.76Z"/><path class="cls-5" d="M440.2,95.72c-1.23,0-2.13-.43-2.72-1.28-.59-.85-.88-1.87-.88-3.04s.29-2.27.88-3.12c.59-.85,1.49-1.28,2.72-1.28h60.48c1.23,0,2.13.43,2.72,1.28.59.85.88,1.89.88,3.12s-.29,2.19-.88,3.04c-.59.85-1.49,1.28-2.72,1.28h-60.48ZM497.32,66.2c1.07.59,1.63,1.51,1.68,2.76.05,1.25-.21,2.36-.8,3.32-.59,1.01-1.46,1.73-2.6,2.16-1.15.43-2.28.35-3.4-.24-2.61-1.44-5.08-2.85-7.4-4.24-2.32-1.39-4.57-2.77-6.76-4.16-2.4-1.55-4.2-3-5.4-4.36-1.2-1.36-1.91-2.49-2.12-3.4h-.08c-.27,1.07-1,2.28-2.2,3.64-1.2,1.36-3,2.81-5.4,4.36-2.19,1.39-4.44,2.77-6.76,4.16-2.32,1.39-4.79,2.8-7.4,4.24-1.12.59-2.24.67-3.36.24-1.12-.43-2-1.17-2.64-2.24-.59-1.01-.85-2.16-.8-3.44.05-1.28.61-2.21,1.68-2.8,2.29-1.28,4.59-2.6,6.88-3.96,2.29-1.36,4.67-2.81,7.12-4.36,2.72-1.76,4.68-3.71,5.88-5.84,1.2-2.13,1.8-4.69,1.8-7.68v-4.24c0-1.55.52-2.67,1.56-3.36,1.04-.69,2.25-1.04,3.64-1.04s2.6.35,3.64,1.04c1.04.69,1.56,1.81,1.56,3.36v4.24c0,2.99.6,5.55,1.8,7.68,1.2,2.13,3.16,4.08,5.88,5.84,2.45,1.55,4.83,3,7.12,4.36,2.29,1.36,4.59,2.68,6.88,3.96Z"/><path class="cls-4" d="M354.76,62.2c1.17,0,2.04.41,2.6,1.24.56.83.84,1.83.84,3s-.28,2.17-.84,3c-.56.83-1.43,1.24-2.6,1.24h-21.28c-1.17,0-2.04-.41-2.6-1.24s-.84-1.83-.84-3,.28-2.17.84-3,1.43-1.24,2.6-1.24h21.28Z"/><path class="cls-4" d="M363.96,42.68c0-1.07.29-2.03.88-2.88.59-.85,1.49-1.28,2.72-1.28h28.16c1.23,0,2.13.43,2.72,1.28.59.85.88,1.81.88,2.88s-.29,2.03-.88,2.88c-.59.85-1.49,1.28-2.72,1.28h-1.52v27.84l2.16-.24c1.23-.16,2.19.12,2.88.84.69.72,1.09,1.61,1.2,2.68.11,1.12-.08,2.16-.56,3.12-.48.96-1.25,1.49-2.32,1.6-2.4.27-4.73.48-7,.64-2.27.16-4.6.28-7,.36-2.4.08-4.93.12-7.6.12h-8.88c-1.23,0-2.13-.43-2.72-1.28-.59-.85-.88-1.81-.88-2.88s.29-2.03.88-2.88c.59-.85,1.49-1.28,2.72-1.28h2.88v-28.64h-2.4c-1.23,0-2.13-.43-2.72-1.28-.59-.85-.88-1.81-.88-2.88ZM379,75.48h3.12c1.01,0,2.03-.05,3.04-.16v-28.48h-6.16v28.64ZM412.28,65.08v29.84c0,1.39-.48,2.4-1.44,3.04-.96.64-2.03.96-3.2.96s-2.24-.32-3.2-.96-1.44-1.65-1.44-3.04v-57.76c0-1.39.48-2.4,1.44-3.04s2.03-.96,3.2-.96,2.24.32,3.2.96c.96.64,1.44,1.65,1.44,3.04v19.28h5.76v-20.08c0-1.39.48-2.4,1.44-3.04.96-.64,2.03-.96,3.2-.96s2.32.32,3.28.96c.96.64,1.44,1.65,1.44,3.04v61.92c0,1.39-.48,2.4-1.44,3.04-.96.64-2.05.96-3.28.96s-2.24-.32-3.2-.96c-.96-.64-1.44-1.65-1.44-3.04v-33.2h-5.76Z"/><path class="cls-4" d="M440.2,95.72c-1.23,0-2.13-.43-2.72-1.28-.59-.85-.88-1.87-.88-3.04s.29-2.27.88-3.12c.59-.85,1.49-1.28,2.72-1.28h60.48c1.23,0,2.13.43,2.72,1.28.59.85.88,1.89.88,3.12s-.29,2.19-.88,3.04c-.59.85-1.49,1.28-2.72,1.28h-60.48ZM497.32,66.2c1.07.59,1.63,1.51,1.68,2.76.05,1.25-.21,2.36-.8,3.32-.59,1.01-1.46,1.73-2.6,2.16-1.15.43-2.28.35-3.4-.24-2.61-1.44-5.08-2.85-7.4-4.24-2.32-1.39-4.57-2.77-6.76-4.16-2.4-1.55-4.2-3-5.4-4.36-1.2-1.36-1.91-2.49-2.12-3.4h-.08c-.27,1.07-1,2.28-2.2,3.64-1.2,1.36-3,2.81-5.4,4.36-2.19,1.39-4.44,2.77-6.76,4.16-2.32,1.39-4.79,2.8-7.4,4.24-1.12.59-2.24.67-3.36.24-1.12-.43-2-1.17-2.64-2.24-.59-1.01-.85-2.16-.8-3.44.05-1.28.61-2.21,1.68-2.8,2.29-1.28,4.59-2.6,6.88-3.96,2.29-1.36,4.67-2.81,7.12-4.36,2.72-1.76,4.68-3.71,5.88-5.84,1.2-2.13,1.8-4.69,1.8-7.68v-4.24c0-1.55.52-2.67,1.56-3.36,1.04-.69,2.25-1.04,3.64-1.04s2.6.35,3.64,1.04c1.04.69,1.56,1.81,1.56,3.36v4.24c0,2.99.6,5.55,1.8,7.68,1.2,2.13,3.16,4.08,5.88,5.84,2.45,1.55,4.83,3,7.12,4.36,2.29,1.36,4.59,2.68,6.88,3.96Z"/></g></g></svg>