<svg xmlns="http://www.w3.org/2000/svg" viewBox="0 0 192.23 107.22"><defs><style>.cls-1{fill:#231815;}.cls-2{fill:#df0011;}.cls-3{fill:#fff;}</style></defs><title>ipass</title><g id="레이어_2" data-name="레이어 2"><g id="레이어_1-2" data-name="레이어 1"><path class="cls-1" d="M121,24.53c0-5.41,4.39-8.27,10.39-8.27s10.43,2.82,10.43,8.27v3.18c0,5.45-4.39,8.27-10.39,8.27S121,33.16,121,27.71ZM122.91,50V37.62H130v7h24V50Zm4.86-22.23c0,1.83,1.39,3.11,3.62,3.11s3.66-1.28,3.66-3.11V24.46c0-1.83-1.43-3.15-3.66-3.11s-3.62,1.28-3.62,3.11Zm18.54,13.82V15.9h6.95V41.61Z"/><path class="cls-1" d="M159,37V31.81c4.42-.59,7.39-3.73,7.39-7V24.6h-7.21V19.15h7.06V15.94h6.66v3.21h6.84V24.6h-6.95v.19a10,10,0,0,1-.33,2.56c4.75.36,8.48,3.62,8.37,9.43h-6.36c0-2.78-1.9-4.75-4.64-4.53A15,15,0,0,1,159,37Zm9.22,7.72h24V50H161.14V38.9h7.06Zm11.44-19.64h4.91V15.9h6.94V41.61h-6.94V30.46h-4.91Z"/><path class="cls-1" d="M136.11,65.24V84.48h2.27v5.37h-18V84.48h2.27V65.24h5.78V84.48h1.9V65.24Zm1.72-7v5.64h-17V58.25Zm9.95-1.06h6V91.32h-6V76.14h-2.2V91.32h-6V57.19h6V70.43h2.2Z"/><path class="cls-1" d="M158.58,84.59h33.65V90.4H158.58Zm.84-6.11v-6c7.64-1.42,12.14-6.21,12.29-14.74h7.2a24.65,24.65,0,0,1-1,7c6.44.21,13.17,4.46,13.9,13.38h-7.06a9.53,9.53,0,0,0-9.58-7.71C171.74,75.11,166.26,77.93,159.42,78.48Z"/><rect class="cls-2" width="107.22" height="107.22" rx="36.1"/><path class="cls-3" d="M23.48,69.68h7.24c3.81,0,6.3,2.4,6.3,6s-2.56,5.92-6.44,5.92H27.94V86.7H23.48Zm6.2,8.42a2.35,2.35,0,0,0,2.66-2.45c0-1.48-1-2.4-2.66-2.4H27.94V78.1Z"/><path class="cls-3" d="M36,86.7l5.67-17H47.8l5.64,17H48.62l-1-3.34H41.9l-1,3.34ZM46.57,80l-1.76-5.72h-.14L42.93,80Z"/><path class="cls-3" d="M61.29,73.13c-1.48,0-2.14.57-2.16,1.37s.77,1.36,2.35,1.69l1.41.33c3.66.78,5.29,2.56,5.31,5.17,0,3.34-2.59,5.22-6.89,5.22S54.07,85,54,80.8H58.3c.07,1.57,1.18,2.42,2.94,2.42,1.53,0,2.35-.63,2.37-1.53S62.91,80.4,61,80l-1.72-.38c-3-.66-4.82-2.14-4.82-4.77,0-3.22,2.82-5.39,6.82-5.39s6.65,2.19,6.67,5.5h-4.3C63.57,73.79,62.82,73.13,61.29,73.13Z"/><path class="cls-3" d="M76.83,73.13c-1.48,0-2.14.57-2.17,1.37s.78,1.36,2.35,1.69l1.41.33c3.67.78,5.29,2.56,5.32,5.17,0,3.34-2.59,5.22-6.89,5.22S69.61,85,69.56,80.8h4.28c.07,1.57,1.18,2.42,2.94,2.42,1.53,0,2.35-.63,2.37-1.53s-.7-1.29-2.61-1.71l-1.71-.38c-3-.66-4.82-2.14-4.82-4.77,0-3.22,2.82-5.39,6.82-5.39s6.65,2.19,6.67,5.5H79.2C79.11,73.79,78.35,73.13,76.83,73.13Z"/><path class="cls-3" d="M71.06,57.41a3.34,3.34,0,0,0-4.55-1.12c-.34.21-8.56,4.92-15-.84a14.64,14.64,0,0,1-1.73-1.83c3.09-4,5.88-8.66,6.15-12.83.42-6.59-2.07-8.81-4.23-9.51-2.67-.86-5.71.49-7.58,3.36-2.75,4.2-4.74,11.41-2.27,18.15a65.89,65.89,0,0,1-5,5.09,3.26,3.26,0,0,0-.24,4.64,3.37,3.37,0,0,0,4.69.23c.47-.42,2.12-1.92,4.16-4.07A21.31,21.31,0,0,0,47,60.32a17.59,17.59,0,0,0,12,4.52A22.24,22.24,0,0,0,70,61.9,3.24,3.24,0,0,0,71.06,57.41ZM48.43,42.69s-.7.08.19-2.71c.34-1.07.58-1.58.94-1.55C50.48,38.52,49.46,42.59,48.43,42.69Z"/><path class="cls-3" d="M50.26,27a6.41,6.41,0,1,0-6.49-6.4A6.44,6.44,0,0,0,50.26,27Z"/><path class="cls-3" d="M0,60H17.43l1.08-1.29h2.54L22.13,60H36.47v-.6H22.41l-.64-.75a2.45,2.45,0,0,0,1.92-2.39V53.71a2.45,2.45,0,0,0-2.45-2.45H21l.23-.63H22A.3.3,0,0,0,22,50H17.57a.3.3,0,1,0,0,.59h.73l.23.63h-.21a2.45,2.45,0,0,0-2.45,2.45v2.58a2.45,2.45,0,0,0,1.92,2.39l-.64.75H0Zm18.93-9.4h1.7l-.23.63H19.16Zm-2.47,5.66V53.71a1.86,1.86,0,0,1,1.86-1.86h2.92a1.86,1.86,0,0,1,1.86,1.86v2.58a1.86,1.86,0,0,1-1.86,1.86H18.32A1.86,1.86,0,0,1,16.46,56.29Z"/><path class="cls-3" d="M22.46,55.56V53.33a.64.64,0,0,0-.63-.63H17.74a.63.63,0,0,0-.63.63v2.23a.63.63,0,0,0,.63.63h4.09A.64.64,0,0,0,22.46,55.56Zm-4.76,0V53.33s0,0,0,0h4.09a0,0,0,0,1,0,0v2.23a0,0,0,0,1,0,0H17.74S17.7,55.58,17.7,55.56Z"/><path class="cls-3" d="M88.8,52.52H85.58v3.23H88.8Zm-.59,2.64h-2v-2h2Z"/><path class="cls-3" d="M84.55,52.52H81.32v3.23h3.23ZM84,55.16h-2v-2h2Z"/><path class="cls-3" d="M107.41,59.43H91.92a1.2,1.2,0,0,0,.22-.5h.73a1.61,1.61,0,0,0,1.61-1.61V52.66a1.61,1.61,0,0,0-1.61-1.61h-.08l-1.46-.9a.3.3,0,0,0-.41.1.29.29,0,0,0,.1.4l.64.4H81.52a1.62,1.62,0,0,0-1.62,1.61v4.66a1.62,1.62,0,0,0,1.62,1.61h.72a1.34,1.34,0,0,0,.22.5H68.55V60h15A1.38,1.38,0,0,0,85,58.93h4.48A1.39,1.39,0,0,0,90.79,60h16.62ZM93.89,52.66v2.5h-3.3V51.64h2.28A1,1,0,0,1,93.89,52.66Zm-13.4,4.66V52.66a1,1,0,0,1,1-1H90v4.11h3.9v1.57a1,1,0,0,1-1,1h-.73a1.38,1.38,0,0,0-2.71,0H85a1.38,1.38,0,0,0-2.71,0h-.72A1,1,0,0,1,80.49,57.32Zm3.11,2.11a.79.79,0,0,1-.8-.79.8.8,0,1,1,1.6,0A.79.79,0,0,1,83.6,59.43ZM90,58.64a.8.8,0,0,1,.8-.8.79.79,0,0,1,.79.8.79.79,0,0,1-.79.79A.79.79,0,0,1,90,58.64Z"/></g></g></svg>