<svg width="60" height="60" viewBox="0 0 60 60" fill="none" xmlns="http://www.w3.org/2000/svg">
<path d="M26.8405 35.7974C26.5114 35.7974 26.1958 35.9281 25.9631 36.1608C25.7304 36.3935 25.5997 36.7091 25.5997 37.0382V46.3919H23.3118V37.0382C23.3118 36.7091 23.1811 36.3935 22.9484 36.1608C22.7156 35.9281 22.4 35.7974 22.0709 35.7974C21.7418 35.7974 21.4262 35.9281 21.1935 36.1608C20.9608 36.3935 20.8301 36.7091 20.8301 37.0382V58.7585C20.8301 59.0876 20.9608 59.4032 21.1935 59.6359C21.4262 59.8687 21.7418 59.9994 22.0709 59.9994C22.4 59.9994 22.7156 59.8687 22.9484 59.6359C23.1811 59.4032 23.3118 59.0876 23.3118 58.7585V48.8736H25.5997V58.7589C25.5997 59.088 25.7304 59.4036 25.9631 59.6363C26.1958 59.869 26.5114 59.9997 26.8405 59.9997C27.1696 59.9997 27.4853 59.869 27.718 59.6363C27.9507 59.4036 28.0814 59.088 28.0814 58.7589V37.0382C28.0814 36.7091 27.9507 36.3935 27.718 36.1608C27.4853 35.9281 27.1696 35.7974 26.8405 35.7974Z" fill="#31A993"/>
<path d="M18.663 36.4206H6.62326C6.36505 36.221 6.05438 36.1007 5.72905 36.0743C5.40372 36.048 5.07775 36.1168 4.79079 36.2723C4.50383 36.4278 4.26824 36.6634 4.1127 36.9503C3.95715 37.2373 3.88835 37.5633 3.91466 37.8886C3.94096 38.2139 4.06124 38.5246 4.26087 38.7828C4.4605 39.0411 4.73086 39.2357 5.03908 39.3431C5.3473 39.4505 5.68008 39.466 5.99696 39.3878C6.31383 39.3095 6.60114 39.1409 6.82392 38.9023H14.8879V46.3332C14.8879 46.6966 14.5351 46.9917 14.1013 46.9917C13.6675 46.9917 13.314 46.6963 13.314 46.3332V42.7454C13.314 41.0141 11.8478 39.6057 10.0456 39.6057C8.24347 39.6057 6.7773 41.0141 6.7773 42.7454V46.7626C6.55621 47.0034 6.41 47.3033 6.35649 47.6258C6.30298 47.9483 6.34449 48.2794 6.47596 48.5787C6.60743 48.878 6.82316 49.1326 7.09685 49.3114C7.37054 49.4901 7.69035 49.5854 8.01725 49.5855C8.34416 49.5856 8.66403 49.4906 8.93784 49.312C9.21164 49.1334 9.42755 48.8789 9.55921 48.5797C9.69087 48.2805 9.73259 47.9494 9.67928 47.6269C9.62598 47.3044 9.47996 47.0043 9.25902 46.7634V42.7454C9.25902 42.3826 9.61196 42.0875 10.0456 42.0875C10.4793 42.0875 10.8323 42.3826 10.8323 42.7454V46.3332C10.8323 48.0647 12.2988 49.4734 14.1013 49.4734C15.9038 49.4734 17.3697 48.0647 17.3697 46.3332V38.9023H18.663C18.9921 38.9023 19.3077 38.7716 19.5404 38.5389C19.7731 38.3062 19.9038 37.9906 19.9038 37.6615C19.9038 37.3324 19.7731 37.0168 19.5404 36.784C19.3077 36.5513 18.9921 36.4206 18.663 36.4206Z" fill="#31A993"/>
<path d="M18.6596 50.5132H5.52895C5.19985 50.5132 4.88424 50.6439 4.65153 50.8766C4.41883 51.1093 4.28809 51.4249 4.28809 51.754C4.28809 52.0831 4.41883 52.3988 4.65153 52.6315C4.88424 52.8642 5.19985 52.9949 5.52895 52.9949H18.6596C18.9887 52.9949 19.3043 52.8642 19.537 52.6315C19.7697 52.3988 19.9004 52.0831 19.9004 51.754C19.9004 51.4249 19.7697 51.1093 19.537 50.8766C19.3043 50.6439 18.9887 50.5132 18.6596 50.5132Z" fill="#31A993"/>
<path d="M39.1741 45.198C39.3191 45.2724 39.4774 45.3174 39.6398 45.3306C39.8022 45.3437 39.9657 45.3247 40.1208 45.2747C40.2759 45.2246 40.4196 45.1444 40.5437 45.0388C40.6678 44.9332 40.7698 44.8041 40.844 44.659L45.4208 35.7187C45.4607 35.6553 45.5163 35.6032 45.5823 35.5675C45.6483 35.5319 45.7224 35.514 45.7973 35.5155C45.8723 35.517 45.9456 35.5379 46.0101 35.5761C46.0745 35.6143 46.1281 35.6686 46.1654 35.7336L51.5669 44.7321C51.6502 44.873 51.7605 44.996 51.8915 45.094C52.0226 45.1921 52.1717 45.2632 52.3303 45.3034C52.489 45.3436 52.654 45.352 52.8159 45.3282C52.9778 45.3043 53.1334 45.2487 53.2737 45.1644C53.414 45.0802 53.5363 44.9691 53.6335 44.8374C53.7306 44.7057 53.8008 44.5561 53.8399 44.3972C53.879 44.2383 53.8864 44.0732 53.8614 43.9115C53.8365 43.7498 53.7798 43.5945 53.6946 43.4548L48.3095 34.4841C48.0518 34.0411 47.682 33.6739 47.2372 33.4193C46.7924 33.1648 46.2884 33.032 45.776 33.0342C45.2635 33.0365 44.7607 33.1737 44.3182 33.4322C43.8757 33.6906 43.5091 34.0611 43.2554 34.5063L43.2415 34.5305L38.6354 43.528C38.4854 43.8209 38.4579 44.1614 38.5589 44.4746C38.6599 44.7877 38.8812 45.048 39.1741 45.198Z" fill="#3369B2"/>
<path d="M57.9692 46.5526H35.3956C34.546 46.5526 33.7723 45.8872 33.7723 45.1566V39.764L33.7708 39.7013C33.6964 38.23 32.53 36.0414 29.6215 36.0414H28.3452C28.0897 35.7314 27.7447 35.5079 27.3574 35.4014C26.9701 35.2949 26.5593 35.3105 26.1812 35.4462C25.8031 35.5819 25.4762 35.831 25.245 36.1595C25.0138 36.4881 24.8897 36.8799 24.8896 37.2816C24.8896 37.6833 25.0135 38.0753 25.2446 38.4039C25.4756 38.7325 25.8025 38.9817 26.1805 39.1176C26.5586 39.2534 26.9693 39.2692 27.3567 39.1628C27.7441 39.0564 28.0891 38.833 28.3447 38.5231H29.6216C30.9978 38.5231 31.2489 39.4041 31.2908 39.8158V45.1562C31.2908 47.2581 33.1706 49.0338 35.3957 49.0338H57.9692C58.2983 49.0338 58.6139 48.9031 58.8466 48.6704C59.0794 48.4377 59.2101 48.1221 59.2101 47.793C59.2101 47.4639 59.0794 47.1483 58.8466 46.9156C58.6139 46.6828 58.2983 46.5521 57.9692 46.5521V46.5526ZM25.954 37.2816C25.9542 37.1354 25.9905 36.9915 26.0598 36.8627C26.129 36.734 26.2291 36.6243 26.351 36.5436C26.4729 36.4629 26.6128 36.4136 26.7584 36.4C26.904 36.3865 27.0506 36.4092 27.1853 36.4661C26.9868 36.6918 26.8773 36.982 26.8773 37.2825C26.8773 37.5831 26.9868 37.8733 27.1853 38.0989C27.0505 38.1559 26.9036 38.1787 26.7578 38.1651C26.612 38.1514 26.4719 38.1019 26.3499 38.0209C26.2279 37.94 26.1279 37.83 26.0588 37.701C25.9897 37.5719 25.9536 37.4277 25.9538 37.2813L25.954 37.2816Z" fill="#3369B2"/>
<path d="M32.9369 18.7056H35.7333C37.7156 18.7056 39.3284 17.1403 39.3284 15.2161V6.08164C39.3284 5.75254 39.1977 5.43692 38.965 5.20422C38.7323 4.97151 38.4166 4.84078 38.0875 4.84078C37.7585 4.84078 37.4428 4.97151 37.2101 5.20422C36.9774 5.43692 36.8467 5.75254 36.8467 6.08164V10.7969H31.8235V6.08119C31.8235 5.7521 31.6928 5.43648 31.4601 5.20377C31.2274 4.97107 30.9118 4.84033 30.5827 4.84033C30.2536 4.84033 29.9379 4.97107 29.7052 5.20377C29.4725 5.43648 29.3418 5.7521 29.3418 6.08119V15.2161C29.3417 17.1403 30.9545 18.7056 32.9369 18.7056ZM36.8467 13.2786V15.2161C36.8467 15.7718 36.3472 16.2239 35.7333 16.2239H32.9369C32.323 16.2239 31.8235 15.7719 31.8235 15.2161V13.2786H36.8467Z" fill="#EDA7C8"/>
<path d="M47.1301 31.4236V25.7954C47.1301 23.4883 45.0943 21.6113 42.5921 21.6113H28.6315C28.3024 21.6113 27.9868 21.7421 27.7541 21.9748C27.5213 22.2075 27.3906 22.5231 27.3906 22.8522C27.3906 23.1813 27.5213 23.4969 27.7541 23.7296C27.9868 23.9623 28.3024 24.0931 28.6315 24.0931H42.5921C43.7259 24.0931 44.6483 24.8567 44.6483 25.7954V31.4251C44.3387 31.6808 44.1156 32.0259 44.0094 32.4131C43.9032 32.8004 43.9192 33.211 44.0552 33.5888C44.1911 33.9667 44.4404 34.2933 44.769 34.5242C45.0975 34.755 45.4894 34.8788 45.8909 34.8786C46.2925 34.8784 46.6842 34.7542 47.0125 34.523C47.3409 34.2919 47.5898 33.965 47.7254 33.587C47.8609 33.209 47.8765 32.7984 47.77 32.4112C47.6634 32.0241 47.4399 31.6793 47.1301 31.4239V31.4236ZM45.8887 33.815C45.7345 33.815 45.5829 33.7746 45.449 33.698C45.3151 33.6214 45.2035 33.5111 45.1253 33.378C45.0472 33.245 45.0051 33.0939 45.0033 32.9396C45.0014 32.7854 45.04 32.6333 45.115 32.4985C45.3346 32.6747 45.6078 32.7707 45.8894 32.7707C46.171 32.7707 46.4441 32.6747 46.6638 32.4985C46.7374 32.6297 46.776 32.7777 46.7759 32.9282C46.7755 33.1634 46.6819 33.3888 46.5156 33.555C46.3493 33.7213 46.1239 33.8148 45.8887 33.815Z" fill="#EDA7C8"/>
<path d="M57.5409 0.00321338C57.1207 0.00356001 56.716 0.161729 56.407 0.446378H48.832C46.5249 0.446378 44.648 2.40702 44.648 4.81704V10.5318H42.7442V2.82254C42.9652 2.58166 43.1114 2.28166 43.1648 1.95915C43.2182 1.63663 43.1765 1.30555 43.045 1.00628C42.9134 0.707022 42.6976 0.452522 42.4239 0.273835C42.1501 0.0951475 41.8303 0 41.5034 0C41.1764 0 40.8566 0.0951475 40.5829 0.273835C40.3091 0.452522 40.0933 0.707022 39.9617 1.00628C39.8302 1.30555 39.7886 1.63663 39.842 1.95915C39.8954 2.28166 40.0415 2.58166 40.2625 2.82254V18.9937C40.2625 19.3228 40.3932 19.6384 40.6259 19.8711C40.8586 20.1038 41.1743 20.2346 41.5034 20.2346C41.8325 20.2346 42.1481 20.1038 42.3808 19.8711C42.6135 19.6384 42.7442 19.3228 42.7442 18.9937V13.0136H44.648V19.2001C44.648 19.5292 44.7787 19.8448 45.0114 20.0776C45.2441 20.3103 45.5597 20.441 45.8888 20.441C46.2179 20.441 46.5335 20.3103 46.7662 20.0776C46.9989 19.8448 47.1297 19.5292 47.1297 19.2001V4.81704C47.1297 3.77543 47.8934 2.9281 48.832 2.9281H56.4069C56.6088 3.11294 56.8528 3.24573 57.1177 3.31496C57.3826 3.38419 57.6603 3.38777 57.9269 3.32539C58.1935 3.26301 58.4408 3.13655 58.6474 2.95698C58.8541 2.77741 59.0138 2.55015 59.1128 2.29489C59.2117 2.03964 59.2469 1.7641 59.2153 1.49216C59.1837 1.22022 59.0863 0.9601 58.9314 0.734338C58.7766 0.508576 58.569 0.323987 58.3267 0.196584C58.0844 0.0691808 57.8146 0.00280877 57.5409 0.00321338Z" fill="#EDA7C8"/>
<path d="M29.8029 21.4272C29.7662 18.9266 28.2125 16.9804 26.2342 16.9804H19.2145V16.1786C19.2145 14.4038 17.8729 12.9599 16.2238 12.9599H13.2681C13.027 12.9599 12.7585 12.6572 12.7585 12.223V8.07867C12.7585 7.64437 13.027 7.34178 13.2681 7.34178H23.0919L23.1546 7.34019C24.6259 7.26573 26.8145 6.09932 26.8145 3.19092V2.82283C27.0354 2.58216 27.1815 2.28236 27.2348 1.96005C27.2882 1.63774 27.2465 1.30687 27.1149 1.00785C26.9833 0.708837 26.7674 0.45462 26.4937 0.276248C26.22 0.0978755 25.9003 0.00307458 25.5736 0.0034189H25.5719C25.2452 0.00321607 24.9255 0.0981605 24.6519 0.276659C24.3782 0.455157 24.1625 0.709482 24.0311 1.00856C23.8996 1.30764 23.8581 1.63853 23.9116 1.96081C23.9652 2.2831 24.1114 2.58281 24.3324 2.82336V3.19092C24.3324 4.56704 23.4514 4.81814 23.0397 4.86006H13.268C11.6186 4.86006 10.2767 6.30389 10.2767 8.07867V12.223C10.2767 13.9977 11.6186 15.4416 13.268 15.4416H16.2238C16.4644 15.4416 16.7327 15.7443 16.7327 16.1786V16.9804H5.92079L4.78531 16.9752C4.46933 16.9752 4.05276 16.5675 3.83844 15.88C4.01425 15.6276 4.11753 15.3319 4.13707 15.0249C4.15661 14.718 4.09165 14.4116 3.94927 14.139C3.80688 13.8663 3.59251 13.638 3.32944 13.4786C3.06637 13.3193 2.76467 13.2351 2.4571 13.2352H2.45533C2.11228 13.2351 1.77741 13.3399 1.4956 13.5355C1.21379 13.7311 0.998509 14.0082 0.878599 14.3296C0.75869 14.651 0.739886 15.0014 0.824708 15.3338C0.90953 15.6662 1.09392 15.9647 1.35317 16.1894C1.77542 18.0965 3.13098 19.4569 4.77955 19.4569L5.91512 19.4622H26.2341C26.678 19.4622 27.3227 20.2627 27.3227 21.5173C27.3227 21.5323 27.3245 21.5469 27.325 21.5616C27.0295 21.8335 26.8252 22.1901 26.74 22.5825C26.6547 22.9749 26.6927 23.3841 26.8488 23.7541C27.0048 24.1241 27.2713 24.4369 27.6118 24.6498C27.9523 24.8627 28.3502 24.9652 28.7512 24.9435C29.1522 24.9217 29.5367 24.7767 29.8521 24.5282C30.1676 24.2797 30.3986 23.9398 30.5136 23.5551C30.6287 23.1703 30.6221 22.7595 30.4949 22.3786C30.3677 21.9977 30.126 21.6654 29.8028 21.4271L29.8029 21.4272ZM28.6451 23.883C28.41 23.8825 28.1845 23.7888 28.0184 23.6224C27.8522 23.456 27.7589 23.2304 27.7588 22.9952C27.7589 22.8394 27.8005 22.6865 27.8792 22.5521C28.1016 22.6994 28.3655 22.7711 28.6318 22.7565C28.898 22.7419 29.1525 22.6417 29.3574 22.471C29.4703 22.6225 29.5314 22.8064 29.5315 22.9954C29.5313 23.2306 29.4379 23.4561 29.2718 23.6225C29.1056 23.7889 28.8803 23.8826 28.6451 23.883Z" fill="#3369B2"/>
<path d="M17.8526 20.2642C14.7003 20.2642 12.1357 23.107 12.1357 26.6014C12.1357 30.0959 14.7003 32.9387 17.8526 32.9387C21.0048 32.9387 23.5694 30.0958 23.5694 26.6014C23.5694 23.1071 21.0049 20.2642 17.8526 20.2642ZM17.8526 30.4569C16.0687 30.4569 14.6175 28.7273 14.6175 26.6014C14.6175 24.4756 16.0687 22.7459 17.8526 22.7459C19.6364 22.7459 21.0877 24.4755 21.0877 26.6014C21.0877 28.7274 19.6364 30.4569 17.8526 30.4569Z" fill="#3369B2"/>
<path d="M28.6529 23.8825C28.4777 23.8825 28.3064 23.8306 28.1606 23.7332C28.0149 23.6359 27.9013 23.4975 27.8342 23.3356C27.7671 23.1737 27.7494 22.9955 27.7836 22.8236C27.8177 22.6517 27.902 22.4938 28.0259 22.3698C28.1497 22.2458 28.3076 22.1613 28.4794 22.127C28.6513 22.0927 28.8295 22.1101 28.9914 22.1771C29.1534 22.244 29.2919 22.3574 29.3894 22.5031C29.4869 22.6487 29.5391 22.82 29.5393 22.9952C29.5391 23.2303 29.4457 23.4558 29.2795 23.6221C29.1134 23.7884 28.8881 23.8821 28.6529 23.8825Z" fill="white"/>
<path d="M45.8971 33.8151C45.7218 33.8151 45.5505 33.7632 45.4047 33.6658C45.259 33.5684 45.1453 33.43 45.0782 33.2681C45.0112 33.1062 44.9936 32.928 45.0277 32.7561C45.0619 32.5841 45.1463 32.4262 45.2702 32.3022C45.3941 32.1783 45.552 32.0938 45.7239 32.0596C45.8958 32.0253 46.074 32.0428 46.236 32.1098C46.3979 32.1768 46.5364 32.2904 46.6338 32.4361C46.7313 32.5818 46.7833 32.7531 46.7834 32.9284C46.7833 33.1634 46.6899 33.3888 46.5237 33.5551C46.3575 33.7214 46.1322 33.8149 45.8971 33.8151Z" fill="white"/>
<path d="M26.86 38.1682C26.6847 38.1682 26.5134 38.1162 26.3677 38.0189C26.2219 37.9215 26.1083 37.7831 26.0412 37.6212C25.9741 37.4593 25.9565 37.2812 25.9906 37.1093C26.0247 36.9374 26.109 36.7795 26.2329 36.6555C26.3567 36.5315 26.5146 36.447 26.6865 36.4127C26.8583 36.3783 27.0365 36.3958 27.1985 36.4627C27.3605 36.5296 27.4989 36.6431 27.5964 36.7887C27.6939 36.9343 27.7461 37.1056 27.7463 37.2809C27.7461 37.516 27.6527 37.7414 27.4866 37.9078C27.3204 38.0741 27.0951 38.1677 26.86 38.1682Z" fill="white"/>
</svg>
