<?xml version="1.0" encoding="UTF-8"?><svg id="_레이어_2" xmlns="http://www.w3.org/2000/svg" viewBox="0 0 134.45 43.73"><defs><style>.cls-1{fill:#eb5b3a;}.cls-2{fill:#e4007f;}.cls-3{fill:#101649;}.cls-4{fill:#e60044;}.cls-5{fill:#ef856d;}</style></defs><g id="_레이어_1-2"><path class="cls-3" d="M17.59,18.79c0,.67-.22,1.21-.67,1.64-.44.42-1,.63-1.67.63-.62,0-1.14-.21-1.57-.63-.42-.42-.63-.97-.63-1.64v-6.34c0-.8-.2-1.54-.6-2.24-.4-.69-1.18-1.03-2.34-1.03H2.78c-.67,0-1.21-.19-1.64-.57-.42-.38-.63-.88-.63-1.5s.21-1.13.63-1.54c.42-.4.97-.6,1.64-.6h11.08c1.02,0,1.9.31,2.64.94.74.62,1.1,1.54,1.1,2.73v10.14Z"/><path class="cls-3" d="M13.85,4.98c1.02,0,1.9.31,2.64.94.74.62,1.1,1.54,1.1,2.73v10.14c0,.67-.22,1.21-.67,1.64-.44.42-1,.63-1.67.63-.62,0-1.14-.21-1.57-.63-.42-.42-.63-.97-.63-1.64v-6.34c0-.8-.2-1.54-.6-2.24-.4-.69-1.18-1.03-2.34-1.03H2.78c-.67,0-1.21-.19-1.64-.57-.42-.38-.63-.88-.63-1.5s.21-1.13.63-1.54c.42-.4.97-.6,1.64-.6h11.08M13.85,4.47H2.78c-.8,0-1.46.25-1.98.74-.53.5-.79,1.14-.79,1.9s.27,1.41.8,1.88c.51.46,1.18.7,1.97.7h7.34c.97,0,1.59.26,1.9.78.35.61.53,1.28.53,1.98v6.34c0,.8.26,1.47.78,2,.53.52,1.17.78,1.93.78.8,0,1.48-.26,2.02-.77.55-.52.82-1.2.82-2.01v-10.14c0-1.35-.43-2.4-1.28-3.12-.82-.7-1.82-1.05-2.96-1.05h0Z"/><path class="cls-3" d="M24.53,29.34c-1.69-1.51-3.74-2.27-6.14-2.27s-4.52.76-6.21,2.27c-1.69,1.51-2.54,3.45-2.54,5.8s.84,4.35,2.54,5.84c1.69,1.49,3.76,2.23,6.21,2.23s4.45-.75,6.14-2.23c1.69-1.49,2.54-3.44,2.54-5.84s-.85-4.29-2.54-5.8ZM21.36,38.15c-.82.76-1.81,1.14-2.97,1.14s-2.23-.38-3.1-1.14c-.87-.76-1.3-1.76-1.3-3s.43-2.19,1.3-2.97c.87-.78,1.9-1.17,3.1-1.17s2.15.39,2.97,1.17c.82.78,1.24,1.77,1.24,2.97s-.41,2.25-1.24,3Z"/><path class="cls-3" d="M18.39,27.07c2.4,0,4.45.76,6.14,2.27,1.69,1.51,2.54,3.45,2.54,5.8s-.85,4.35-2.54,5.84c-1.69,1.49-3.74,2.23-6.14,2.23s-4.52-.75-6.21-2.23c-1.69-1.49-2.54-3.44-2.54-5.84s.84-4.29,2.54-5.8c1.69-1.51,3.76-2.27,6.21-2.27M18.39,39.28c1.16,0,2.15-.38,2.97-1.14.82-.76,1.24-1.76,1.24-3s-.41-2.19-1.24-2.97c-.82-.78-1.81-1.17-2.97-1.17s-2.23.39-3.1,1.17c-.87.78-1.3,1.77-1.3,2.97s.43,2.25,1.3,3c.87.76,1.9,1.14,3.1,1.14M18.39,26.56c-2.56,0-4.76.81-6.54,2.4-1.79,1.61-2.7,3.69-2.7,6.18s.91,4.64,2.71,6.22c1.78,1.57,3.98,2.36,6.54,2.36s4.7-.79,6.48-2.36c1.8-1.59,2.71-3.68,2.71-6.22s-.91-4.57-2.71-6.18c-1.78-1.59-3.96-2.4-6.48-2.4h0ZM18.39,38.78c-1.08,0-1.99-.33-2.77-1.01-.76-.66-1.13-1.52-1.13-2.62s.37-1.91,1.13-2.59c.78-.7,1.68-1.04,2.76-1.04s1.89.34,2.62,1.03c.73.68,1.08,1.54,1.08,2.6s-.35,1.97-1.07,2.63c-.73.68-1.59,1-2.63,1h0Z"/><path class="cls-3" d="M28.54,23.93c0,.62-.21,1.16-.63,1.6-.42.45-.95.67-1.57.67s-1.16-.22-1.6-.67c-.45-.44-.67-.98-.67-1.6v-3.81c0-.4-.08-.76-.23-1.1-.16-.33-.59-.5-1.3-.5h-2c-1.43,0-2.14-.66-2.14-2,0-.54.17-1,.5-1.4.33-.4.88-.6,1.64-.6h2c.71,0,1.14-.14,1.3-.43.16-.29.23-.63.23-1.03v-1.33c0-.49-.08-.88-.23-1.17-.16-.29-.59-.43-1.3-.43h-2c-1.43,0-2.14-.67-2.14-2.01,0-.53.17-1,.5-1.4.33-.4.88-.6,1.64-.6h2c.76,0,1.2-.2,1.34-.6.13-.4.2-.87.2-1.4v-1.4c0-.22.13-.63.4-1.24.27-.6.89-.92,1.87-.97.67,0,1.2.2,1.6.6.4.4.6.93.6,1.6v21.22Z"/><path class="cls-3" d="M26.34.51c.67,0,1.2.2,1.6.6.4.4.6.93.6,1.6v21.22c0,.62-.21,1.16-.63,1.6-.42.45-.95.67-1.57.67s-1.16-.22-1.6-.67c-.44-.44-.67-.98-.67-1.6v-3.81c0-.4-.08-.76-.23-1.1-.16-.33-.59-.5-1.3-.5h-2c-1.43,0-2.14-.66-2.14-2,0-.54.17-1,.5-1.4.33-.4.88-.6,1.64-.6h2c.71,0,1.14-.14,1.3-.43.16-.29.23-.63.23-1.04v-1.33c0-.49-.08-.88-.23-1.17-.16-.29-.59-.43-1.3-.43h-2c-1.43,0-2.14-.67-2.14-2.01,0-.53.17-1,.5-1.4.33-.4.88-.6,1.64-.6h2c.76,0,1.2-.2,1.34-.6.13-.4.2-.87.2-1.4v-1.4c0-.22.13-.63.4-1.24.27-.6.89-.92,1.87-.97M26.34,0s-.02,0-.02,0c-1.18.05-1.96.48-2.31,1.27-.39.89-.44,1.24-.44,1.44v1.4c0,.48-.06.9-.17,1.24-.08.23-.62.26-.86.26h-2c-.91,0-1.6.26-2.03.78-.41.49-.62,1.07-.62,1.72,0,1.62.94,2.51,2.64,2.51h2c.73,0,.86.17.86.17.11.21.17.52.17.93v1.33c0,.32-.06.58-.17.8h0s-.12.16-.85.16h-2c-.91,0-1.59.26-2.03.78-.41.49-.62,1.07-.62,1.73,0,1.61.94,2.5,2.64,2.5h2c.55,0,.8.11.84.21.12.27.19.56.19.89v3.81c0,.76.28,1.42.82,1.96.54.54,1.19.81,1.96.81s1.41-.28,1.93-.82c.51-.54.77-1.2.77-1.95V2.71c0-.81-.25-1.47-.75-1.96-.49-.5-1.15-.75-1.96-.75h0Z"/><path class="cls-3" d="M33.84,6.65c0-.62.21-1.16.64-1.61.42-.44.97-.66,1.63-.66.62,0,1.14.22,1.57.66.42.45.63.98.63,1.61v6.6c0,.71.18,1.41.53,2.1.36.69,1.16,1.03,2.4,1.03h7.81c.62,0,1.15.19,1.57.57.42.38.63.88.63,1.5,0,.67-.21,1.19-.63,1.57-.42.38-.94.57-1.57.57h-11.54c-.98,0-1.84-.32-2.57-.97-.73-.65-1.1-1.57-1.1-2.77V6.65Z"/><path class="cls-3" d="M36.11,4.38c.62,0,1.14.22,1.57.67.42.45.63.98.63,1.61v6.6c0,.71.18,1.41.53,2.1.36.69,1.16,1.03,2.4,1.03h7.81c.62,0,1.15.19,1.57.57.42.38.64.88.64,1.5,0,.67-.21,1.19-.64,1.57-.42.38-.94.57-1.57.57h-11.54c-.98,0-1.84-.32-2.57-.97-.73-.65-1.1-1.57-1.1-2.77V6.65c0-.62.21-1.16.64-1.61.42-.44.97-.67,1.63-.67M36.11,3.87c-.8,0-1.48.28-2,.82-.52.54-.78,1.2-.78,1.96v10.21c0,1.35.43,2.41,1.27,3.15.83.73,1.8,1.09,2.91,1.09h11.54c.75,0,1.39-.23,1.91-.7.53-.48.8-1.13.8-1.94,0-.77-.27-1.4-.8-1.88-.52-.46-1.16-.7-1.91-.7h-7.81c-1.04,0-1.69-.26-1.96-.76-.32-.61-.48-1.24-.48-1.87v-6.6c0-.75-.26-1.41-.77-1.95-.53-.55-1.18-.82-1.94-.82h0Z"/><path class="cls-3" d="M57.57,28.94c-.64-.67-1.52-1-2.63-1h-9.21c-1.07,0-1.93.33-2.6,1-.67.67-1,1.53-1,2.6v7.81c0,1.07.33,1.93,1,2.6.67.66,1.54,1,2.6,1h9.21c1.11,0,1.99-.33,2.63-1,.65-.67.97-1.54.97-2.6v-7.81c0-1.07-.32-1.94-.97-2.6ZM54.07,36.35c0,.8-.13,1.4-.4,1.8-.27.4-.91.6-1.94.6h-3.07c-.98,0-1.59-.2-1.83-.6-.25-.4-.37-1-.37-1.8v-2c0-.66.16-1.21.47-1.64.31-.42.93-.63,1.87-.63h2.87c1.02,0,1.68.2,1.97.6.29.4.43.96.43,1.67v2Z"/><path class="cls-3" d="M54.93,27.94c1.11,0,1.99.33,2.63,1,.65.67.97,1.53.97,2.6v7.81c0,1.07-.32,1.93-.97,2.6-.64.67-1.52,1-2.63,1h-9.21c-1.07,0-1.93-.33-2.6-1-.67-.67-1-1.54-1-2.6v-7.81c0-1.07.33-1.94,1-2.6.67-.67,1.54-1,2.6-1h9.21M48.66,38.75h3.07c1.02,0,1.67-.2,1.94-.6.27-.4.4-1,.4-1.8v-2c0-.71-.14-1.27-.43-1.67-.29-.4-.94-.6-1.97-.6h-2.87c-.93,0-1.56.21-1.87.63-.31.43-.47.97-.47,1.64v2c0,.8.12,1.4.37,1.8.24.4.86.6,1.83.6M54.93,27.43h-9.21c-1.2,0-2.2.39-2.96,1.15-.76.76-1.15,1.76-1.15,2.96v7.81c0,1.2.39,2.2,1.15,2.96.76.76,1.76,1.15,2.96,1.15h9.21c1.25,0,2.26-.39,3-1.15.74-.76,1.11-1.76,1.11-2.96v-7.81c0-1.2-.37-2.2-1.11-2.96-.74-.77-1.75-1.16-3-1.16h0ZM48.66,38.24c-1.1,0-1.35-.27-1.4-.36-.14-.22-.29-.66-.29-1.54v-2c0-.55.12-1,.37-1.33.2-.28.71-.43,1.46-.43h2.87c1.11,0,1.45.25,1.56.39.22.31.34.77.34,1.37v2c0,.69-.11,1.21-.31,1.52-.08.11-.37.38-1.51.38h-3.07Z"/><path class="cls-3" d="M55,4.91c0-.67.21-1.2.63-1.6.42-.4.97-.6,1.63-.6.8,0,1.37.21,1.7.64.33.42.5.94.5,1.57v3.87c0,.58.1,1.09.3,1.53.2.45.77.67,1.7.67h2.27c.76,0,1.3.23,1.64.67.33.44.5.91.5,1.4,0,1.34-.71,2-2.14,2h-2.27c-.85,0-1.39.19-1.64.57-.24.38-.37.88-.37,1.5v6.6c0,.62-.21,1.16-.63,1.6-.42.45-.95.67-1.57.67s-1.16-.22-1.6-.67c-.45-.44-.67-.98-.67-1.6V4.91Z"/><path class="cls-3" d="M57.27,2.71c.8,0,1.37.21,1.7.64.33.42.5.94.5,1.57v3.87c0,.58.1,1.09.3,1.53.2.45.77.67,1.7.67h2.27c.76,0,1.3.23,1.64.67.33.44.5.91.5,1.4,0,1.34-.71,2-2.14,2h-2.27c-.85,0-1.39.19-1.64.57-.24.38-.37.88-.37,1.5v6.6c0,.62-.21,1.16-.63,1.6-.42.45-.95.67-1.57.67s-1.16-.22-1.6-.67c-.44-.44-.67-.98-.67-1.6V4.91c0-.67.21-1.2.63-1.6.42-.4.97-.6,1.63-.6M57.27,2.2c-.8,0-1.47.25-1.98.74-.52.5-.79,1.16-.79,1.97v18.82c0,.76.27,1.42.82,1.96.54.54,1.2.82,1.96.82s1.42-.28,1.94-.83c.51-.54.77-1.19.77-1.95v-6.6c0-.52.1-.93.29-1.23.14-.22.57-.34,1.21-.34h2.27c1.7,0,2.64-.89,2.64-2.51,0-.6-.2-1.18-.6-1.71-.44-.58-1.12-.87-2.04-.87h-2.27c-.69,0-1.14-.13-1.24-.37-.17-.38-.26-.83-.26-1.32v-3.87c0-.74-.21-1.37-.61-1.88-.43-.55-1.14-.83-2.1-.83h0Z"/><path class="cls-4" d="M129.69,32.65c-1.9,0-3.45,1.55-3.45,3.45,0,.36.06.72.17,1.07.01.06.03.12.06.18l.04.07c.06.14.12.27.2.41l2.52,5.07c.1.2.3.33.52.33h0c.23,0,.43-.13.52-.34l2.34-4.96c.15-.23.26-.48.35-.73v-.03s.13-.5.13-.5c.03-.19.05-.37.05-.56,0-1.9-1.55-3.45-3.45-3.45M129.69,37.94c-1.08,0-1.95-.87-1.95-1.94s.87-1.94,1.95-1.94,1.95.87,1.95,1.94-.87,1.94-1.95,1.94"/><path class="cls-3" d="M90.91,23.1c-.42-.38-.93-.57-1.5-.57h-1.4c-.85,0-1.27-.51-1.27-1.54v-4.2c0-1.02.42-1.53,1.27-1.53h1.14c.62,0,1.14-.2,1.57-.6.42-.4.63-.91.63-1.54s-.21-1.14-.63-1.57c-.43-.42-.95-.63-1.57-.63h-17.82c-.63,0-1.14.21-1.54.63-.4.43-.6.95-.6,1.57s.2,1.13.6,1.54c.4.4.91.6,1.54.6h1.2c.62,0,1.01.13,1.17.4.15.27.23.67.23,1.2v4.14c0,.4-.09.76-.27,1.07-.18.31-.56.47-1.13.47h-1.4c-1.38,0-2.07.69-2.07,2.07,0,.67.19,1.21.57,1.64.38.43.88.64,1.5.64h18.22c.62,0,1.14-.21,1.57-.64.42-.42.63-.97.63-1.64,0-.62-.21-1.12-.63-1.5ZM82.74,21.07c0,.4-.1.76-.3,1.07-.2.31-.66.47-1.37.47h-1.47c-.67,0-1.12-.15-1.33-.43-.23-.29-.34-.66-.34-1.1v-4.14c0-.53.11-.94.34-1.24.22-.29.67-.43,1.33-.43h1.47c.67,0,1.11.13,1.33.4.22.27.33.71.33,1.33v4.07Z"/><path class="cls-3" d="M89.15,10.92c.62,0,1.14.21,1.57.63.42.43.63.95.63,1.57s-.21,1.13-.63,1.54c-.43.4-.95.6-1.57.6h-1.14c-.85,0-1.27.51-1.27,1.53v4.2c0,1.03.42,1.54,1.27,1.54h1.4c.57,0,1.08.19,1.5.57.42.38.63.88.63,1.5,0,.67-.21,1.21-.63,1.64-.42.43-.95.64-1.57.64h-18.22c-.62,0-1.12-.21-1.5-.64-.38-.42-.57-.97-.57-1.64,0-1.38.69-2.07,2.07-2.07h1.4c.58,0,.96-.16,1.13-.47.18-.31.27-.67.27-1.07v-4.14c0-.53-.08-.93-.23-1.2-.16-.27-.55-.4-1.17-.4h-1.2c-.63,0-1.14-.2-1.54-.6-.4-.4-.6-.91-.6-1.54s.2-1.14.6-1.57c.4-.42.91-.63,1.54-.63h17.82M79.6,22.6h1.47c.71,0,1.17-.16,1.37-.47.2-.31.3-.67.3-1.07v-4.07c0-.62-.11-1.07-.33-1.33-.22-.27-.66-.4-1.33-.4h-1.47c-.67,0-1.12.14-1.33.43-.23.29-.34.7-.34,1.24v4.14c0,.45.11.81.34,1.1.22.29.67.43,1.33.43M89.15,10.42h-17.82c-.77,0-1.41.27-1.91.79-.49.52-.74,1.17-.74,1.92s.25,1.4.75,1.89c.5.5,1.14.75,1.9.75h1.2c.53,0,.71.11.73.15.06.1.16.37.16.94v4.14c0,.31-.07.58-.2.82-.11.19-.48.21-.69.21h-1.4c-1.66,0-2.57.91-2.57,2.57,0,.79.23,1.46.69,1.97.47.53,1.1.81,1.88.81h18.22c.76,0,1.41-.26,1.93-.79.52-.51.78-1.19.78-1.99s-.27-1.4-.8-1.88c-.52-.46-1.14-.7-1.84-.7h-1.4c-.39,0-.76-.08-.76-1.03v-4.2c0-.95.39-1.03.76-1.03h1.14c.75,0,1.39-.25,1.92-.74.53-.5.79-1.14.79-1.9s-.26-1.4-.78-1.92c-.52-.52-1.17-.78-1.93-.78h0ZM79.6,22.1c-.7,0-.89-.18-.93-.23-.16-.2-.23-.46-.23-.8v-4.14c0-.42.08-.73.23-.93.04-.06.23-.24.93-.24h1.47c.69,0,.89.15.94.22.08.1.22.36.22,1.01v4.07c0,.31-.07.57-.22.8-.07.12-.36.24-.94.24h-1.47Z"/><path class="cls-3" d="M106.76,30.41c0,.62-.2,1.16-.6,1.6-.4.45-.91.67-1.54.67s-1.15-.22-1.57-.67c-.42-.44-.63-.98-.63-1.6v-6.67c0-.49-.13-.94-.37-1.37-.24-.42-.79-.63-1.64-.63h-.53c-.67.04-1.15.26-1.44.63-.29.38-.43.84-.43,1.37v6.34c0,.62-.2,1.16-.6,1.6-.4.44-.92.67-1.54.67-.67,0-1.2-.22-1.6-.67s-.6-.98-.6-1.6V11.59c0-1.47.73-2.2,2.2-2.2,1.02.04,1.64.37,1.84.97.2.6.3,1.01.3,1.24v3.8c0,.58.11,1.11.33,1.6.22.49.76.73,1.6.73h.53c.89-.04,1.44-.3,1.64-.77.2-.47.3-.99.3-1.57v-3.8c0-.22.12-.63.37-1.24.24-.6.86-.92,1.83-.97,1.42,0,2.14.73,2.14,2.2v18.82Z"/><path class="cls-3" d="M104.63,9.39c1.43,0,2.14.73,2.14,2.2v18.82c0,.62-.2,1.16-.6,1.6-.4.45-.91.67-1.54.67s-1.15-.22-1.57-.67c-.42-.44-.63-.98-.63-1.6v-6.67c0-.49-.13-.94-.37-1.37-.24-.42-.79-.63-1.64-.63h-.53c-.67.04-1.15.26-1.44.63-.29.38-.43.84-.43,1.37v6.34c0,.62-.2,1.16-.6,1.6-.4.44-.92.67-1.54.67-.67,0-1.2-.22-1.6-.67-.4-.44-.6-.98-.6-1.6V11.59c0-1.47.73-2.2,2.2-2.2,1.02.05,1.64.37,1.84.97.2.6.3,1.01.3,1.24v3.8c0,.58.11,1.11.33,1.6.22.49.76.73,1.6.73h.53c.89-.04,1.44-.3,1.64-.77.2-.47.3-.99.3-1.57v-3.8c0-.22.12-.63.37-1.24.24-.6.86-.92,1.83-.97M104.63,8.88s-.02,0-.02,0c-1.19.05-1.95.49-2.28,1.28-.36.88-.4,1.22-.4,1.43v3.8c0,.5-.09.97-.26,1.37-.15.36-.81.44-1.2.46h-.51c-.63,0-1.01-.15-1.14-.44-.19-.43-.29-.89-.29-1.39v-3.8c0-.28-.1-.71-.32-1.39-.27-.82-1.05-1.26-2.3-1.32h0c-1.77,0-2.73.96-2.73,2.71v18.49c0,.75.25,1.4.73,1.94.5.55,1.16.83,1.98.83.76,0,1.41-.28,1.91-.83.48-.54.73-1.19.73-1.94v-6.34c0-.42.11-.77.33-1.06.2-.25.55-.4,1.07-.43h.5c.45,0,1.02.07,1.2.38.2.35.3.72.3,1.11v6.67c0,.76.26,1.42.77,1.95.52.55,1.17.82,1.93.82s1.41-.28,1.91-.83c.48-.54.73-1.19.73-1.94V11.59c0-1.75-.94-2.71-2.64-2.71h0Z"/><path class="cls-3" d="M112.99,29.57c-1.38,0-2.07-.69-2.07-2.07,0-.62.19-1.14.57-1.54.38-.4.88-.6,1.5-.6h18.82c.62,0,1.13.2,1.54.6.4.4.6.91.6,1.54s-.2,1.12-.6,1.5c-.4.38-.91.57-1.54.57h-18.82Z"/><path class="cls-3" d="M131.81,25.36c.62,0,1.13.2,1.54.6.4.4.6.91.6,1.54s-.2,1.12-.6,1.5c-.4.38-.91.57-1.54.57h-18.82c-1.38,0-2.07-.69-2.07-2.07,0-.62.19-1.14.57-1.54.38-.4.88-.6,1.5-.6h18.82M131.81,24.85h-18.82c-.76,0-1.39.26-1.87.76-.47.49-.71,1.12-.71,1.88,0,1.66.91,2.58,2.58,2.58h18.82c.75,0,1.39-.24,1.88-.71.5-.47.76-1.1.76-1.87s-.25-1.4-.75-1.89c-.5-.5-1.14-.75-1.89-.75h0Z"/><path class="cls-3" d="M125.14,15.75c-.85-.67-1.53-1.02-2.04-1.07-.51-.04-1.19.29-2.04,1l-4.6,4.2c-.53.44-1.12.61-1.77.5-.65-.11-1.15-.32-1.5-.63-.4-.45-.59-1-.57-1.67.02-.66.24-1.13.64-1.4,1.87-1.29,3.35-2.47,4.44-3.54,1.09-1.06,1.87-2.19,2.33-3.37.47-1.18.7-2.55.7-4.1,0-.67.21-1.19.63-1.57.42-.38.97-.57,1.64-.57.62,0,1.17.19,1.64.57.47.38.68.9.63,1.57-.18,2.4.4,4.35,1.74,5.84,1.34,1.49,3.12,3.06,5.34,4.7.45.31.69.82.73,1.53.04.71-.15,1.32-.6,1.8-.45.45-.98.67-1.6.67s-1.18-.22-1.67-.67l-4.07-3.8Z"/><path class="cls-3" d="M123,3.54c.62,0,1.17.19,1.64.57.47.38.68.9.63,1.57-.18,2.4.4,4.35,1.74,5.84,1.34,1.49,3.12,3.06,5.34,4.7.44.31.69.82.73,1.53.04.71-.15,1.32-.6,1.8-.45.44-.98.67-1.6.67s-1.18-.22-1.67-.67l-4.07-3.8c-.85-.67-1.53-1.02-2.04-1.07-.03,0-.06,0-.09,0-.5,0-1.15.33-1.94,1l-4.6,4.2c-.43.36-.89.54-1.39.54-.12,0-.25-.01-.38-.03-.65-.11-1.15-.32-1.5-.63-.4-.45-.59-1-.57-1.67.02-.66.24-1.13.64-1.4,1.87-1.29,3.35-2.47,4.44-3.54,1.09-1.06,1.87-2.19,2.33-3.37.47-1.18.7-2.55.7-4.1,0-.67.21-1.19.63-1.57.42-.38.97-.57,1.64-.57M123,3.03c-.79,0-1.46.23-1.97.7-.53.47-.8,1.13-.8,1.94,0,1.48-.22,2.8-.67,3.92-.44,1.11-1.19,2.19-2.22,3.19-1.07,1.05-2.54,2.22-4.37,3.48-.54.36-.83.97-.85,1.8-.03.8.21,1.48.7,2.02.01.02.03.03.04.04.43.37,1.01.62,1.75.75.16.03.31.04.47.04.62,0,1.19-.22,1.71-.65l4.62-4.22c.9-.76,1.39-.87,1.6-.87.33.03.86.21,1.82.96l4.04,3.78c.59.54,1.26.8,2.01.8s1.42-.27,1.96-.82c.55-.61.8-1.34.75-2.19-.05-.87-.37-1.51-.95-1.92-2.17-1.61-3.95-3.17-5.25-4.63-1.23-1.38-1.77-3.22-1.61-5.47.06-.83-.23-1.52-.82-2-.56-.45-1.21-.68-1.95-.68h0Z"/><path class="cls-2" d="M79.24,42.95h-8.02c-.81,0-1.47-.66-1.47-1.47s.66-1.47,1.47-1.47h8.02c.81,0,1.47.66,1.47,1.47s-.66,1.47-1.47,1.47"/><path class="cls-1" d="M93.4,42.95h-8.02c-.81,0-1.47-.66-1.47-1.47s.66-1.47,1.47-1.47h8.02c.81,0,1.47.66,1.47,1.47s-.66,1.47-1.47,1.47"/><path class="cls-4" d="M107.56,42.95h-8.02c-.81,0-1.47-.66-1.47-1.47s.66-1.47,1.47-1.47h8.02c.81,0,1.47.66,1.47,1.47s-.66,1.47-1.47,1.47"/><path class="cls-5" d="M121.72,42.95h-8.02c-.81,0-1.47-.66-1.47-1.47s.66-1.47,1.47-1.47h8.02c.81,0,1.47.66,1.47,1.47s-.66,1.47-1.47,1.47"/></g></svg>