<svg width="44" height="44" viewBox="0 0 44 44" fill="none" xmlns="http://www.w3.org/2000/svg">
    <path fill-rule="evenodd" clip-rule="evenodd" d="M20.767 10.978c-2.466-2.327-6.008.972-3.959 4.028 1.042 1.563 3.75 2.57 7.64 2.362.556-.035.73-.14.174-.417-3.404-1.528-2.05-4.237-3.855-5.973z" fill="#72BF44"/>
    <path fill-rule="evenodd" clip-rule="evenodd" d="M12.85 18.13c.242-.486.312-.59-.313-.313-3.682 1.702-4.41-1.042-6.842-.694-1.354.208-2.396 1.493-2.153 2.951.278 1.702 2.257 2.362 3.855 2.188 3.195-.312 5.035-3.334 5.452-4.132z" fill="#F7941D"/>
    <path fill-rule="evenodd" clip-rule="evenodd" d="M10.036 16.949c.14.104.313.312-.173.243-5.87-.903-6.946-4.376-5.418-6.078.799-.903 2.535-1.007 3.369-.104 1.597 1.736-.105 3.96 2.222 5.939z" fill="#0097D6"/>
    <path fill-rule="evenodd" clip-rule="evenodd" d="M31.22 3.025c.556.035.73.139.139.382-1.39.556-2.778 1.563-2.848 3.89-.07 3.368-4.931 2.465-4.375-1.042.625-3.96 6.424-3.265 7.084-3.23z" fill="#F7941D"/>
    <path fill-rule="evenodd" clip-rule="evenodd" d="M14.065 20.076c1.007 2.986 5.174 1.944 4.827-.938-.313-2.466-3.23-1.667-3.23-4.376 0-.347-.035-.59-.347-.104-.938 1.424-1.736 3.96-1.25 5.418z" fill="#B369AB"/>
    <path fill-rule="evenodd" clip-rule="evenodd" d="M32.123 18.477c-2.57 1.806-3.507-.382-5.383-.486-2.153-.105-2.743 3.368 0 3.993 1.285.313 4.41-.312 5.696-3.438.104-.173.034-.382-.313-.07z" fill="#72BF44"/>
    <path fill-rule="evenodd" clip-rule="evenodd" d="M31.394 16.187c.59-2.917-1.84-5.66-2.084-5.974-.07-.069-.556-.66-.347.209.625 2.604-.73 3.368-1.111 5.244-.626 2.674 3.02 3.09 3.542.52z" fill="#F7941D"/>
    <path d="M16.46 10.249c-3.09.312-4.896 1.18-5.868 1.91-1.424 1.111-1.25 2.882-.417 3.75.903.903 2.605 1.181 3.75-.208 1.355-1.667.035-3.681 2.675-5.21.382-.207.139-.277-.14-.242z" fill="#FC5B00"/>
    <path fill-rule="evenodd" clip-rule="evenodd" d="M36.43 10.594c-.591.243-1.042.73-1.355 1.25-.347.556-.486 1.216-.834 1.772-.312.486-.694.937-1.146 1.285-.243.173-.382.451.105.347.382-.07.937-.14 1.597-.104.66.07 1.528.382 1.945.486.833.278 1.771.243 2.396-.382 1.007-1.077.868-3.056-.104-4.098-.66-.625-1.702-.938-2.605-.556z" fill="#72BF44"/>
    <path fill-rule="evenodd" clip-rule="evenodd" d="M38.825 16.708c-2.083-.312-3.09 1.25-6.146-.833-.278-.174-.486-.348-.313.278.313 1.007 1.771 5.035 4.584 5.73 4.167 1.041 5.279-4.584 1.875-5.175zM19.24 1.809c-.452 2.292 1.319 3.368.902 6.737-.035.278.208.278.278.104 1.354-3.09 3.368-2.987 4.098-5.348 1.146-3.577-4.689-4.515-5.279-1.493z" fill="#0097D6"/>
    <path fill-rule="evenodd" clip-rule="evenodd" d="M10.488 10.631c2.743.208 2.882-1.806 7.744-1.528.382.035.347-.243.104-.313-4.34-1.32-5.105-4.097-7.362-4.202-3.716-.139-4.237 5.73-.486 6.043z" fill="#B369AB"/>
    <path fill-rule="evenodd" clip-rule="evenodd" d="M13.787 4.967c1.667 2.153 2.986.73 4.896 2.813.278.313.486.14.278-.208-1.354-2.153.174-4.133-.972-5.557-2.119-2.708-6.182.417-4.202 2.952zM29.45 7.191c0 2.292 2.5 3.334 2.673 7.606 0 .278.278.278.313 0 .833-4.237 3.16-5.07 3.368-7.501.313-3.786-6.355-4.446-6.355-.105z" fill="#FC5B00"/>
    <path fill-rule="evenodd" clip-rule="evenodd" d="M27.226 14.659c1.007-.869 1.355-2.431.452-3.577-1.702-1.945-3.508 0-5.244-3.23-.278-.52-.486-.417-.382.174.347 1.98-.278 3.959.868 5.695 1.146 1.702 3.195 1.91 4.306.938z" fill="#B369AB"/>
    <path fill-rule="evenodd" clip-rule="evenodd" d="M21.983 18.338a2.216 2.216 0 0 0-2.223 2.223v6.007h4.48V20.56c-.035-1.215-1.007-2.222-2.257-2.222z" fill="#9F9D88"/>
    <path d="M5.591 34.144c.66.799 2.535 1.389 4.202 1.389h.313v-1.285h-.313c-1.354 0-2.743-.66-3.125-1.459h3.299v-1.285H6.598c-.104-.694-.347-.902-.347-.902H4.445s.208.208.313.902H1.32v1.285h3.299c-.417.834-1.806 1.459-3.126 1.459h-.312v1.285h.312c1.563 0 3.438-.59 4.098-1.39zM11.182 37.234V35.95H0v1.285h4.723v.486c-1.632.278-2.674 1.39-2.674 2.674 0 1.528 1.424 2.744 3.577 2.744s3.577-1.216 3.577-2.744c0-1.285-1.042-2.396-2.709-2.674v-.486h4.688zm-3.75 3.16c0 .8-.834 1.459-1.84 1.459-1.008 0-1.841-.66-1.841-1.459 0-.798.833-1.458 1.84-1.458 1.007 0 1.84.66 1.84 1.458zM40.215 40.884v-2.882h-1.737v2.882h-3.75v1.285H44v-1.285h-3.785zM35.387 35.777c0 .938.764 1.667 1.667 1.667h6.112V36.16H37.61a.475.475 0 0 1-.486-.486v-1.528c0-1.076-.243-1.563-.313-1.667h6.355v-1.285H35.04s.347.382.347 1.737v2.847zM32.436 33.342v-2.014a.475.475 0 0 0-.486-.486H30.7v4.306c-.244.104-.591.278-1.563.278H26.01a.475.475 0 0 1-.486-.486v-1.98c0-1.354-.417-1.736-.417-1.736h-1.701s.347.382.347 1.736v2.084c0 .938.764 1.667 1.667 1.667h3.056c.937 0 1.632-.07 2.222-.313v.73h1.737v-2.5h1.736v-1.286h-1.736zM25.525 41.122c0 .938.764 1.667 1.667 1.667h5.278v-5.244h-6.945v3.577zm1.736-2.257H30.7v2.674h-2.952a.475.475 0 0 1-.486-.487v-2.187zM18.544 36.992c-1.944 0-3.542 1.39-3.542 3.056 0 1.702 1.598 3.091 3.542 3.091 1.945 0 3.543-1.39 3.543-3.09 0-1.668-1.563-3.057-3.543-3.057zm0 4.862c-1.007 0-1.805-.799-1.805-1.771 0-.972.798-1.806 1.805-1.806 1.008 0 1.806.799 1.806 1.806.035.972-.799 1.771-1.806 1.771zM21.6 30.844h-1.25v2.743h-1.84v1.285h1.84v2.223h1.737V31.33a.475.475 0 0 0-.486-.486z" fill="#005399"/>
    <path d="M15.523 35.15c.521.8 2.014 1.598 3.23 1.598h.104v-1.32c-1.042-.139-2.362-.798-2.466-2.396h2.292v-1.285h-2.292c-.104-.903-.382-1.18-.382-1.18h-1.736s.243.277.312 1.18h-2.292v1.285h2.292c-.104 1.598-1.423 2.257-2.465 2.396v1.32h.104c1.285 0 2.778-.799 3.3-1.597z" fill="#005399"/>
</svg>
