<svg width="107" height="20" viewBox="0 0 107 20" fill="none" xmlns="http://www.w3.org/2000/svg">
<path d="M3.12757 14.847H5.7046V5.15515H3.12757C1.72701 5.15515 0.550537 4.03471 0.550537 2.57812V17.368C0.550537 16.0235 1.72701 14.847 3.12757 14.847Z" fill="#A5A2D0"/>
<path d="M17.0771 17.4247C17.0771 18.8253 18.1976 20.0018 19.6542 20.0018C21.0547 20.0018 22.2312 18.8813 22.2312 17.4247V12.5508H17.1332V17.4247H17.0771Z" fill="#98CEB7"/>
<path d="M22.1754 2.63172C22.1754 1.23116 21.055 0.0546875 19.5984 0.0546875C18.1978 0.0546875 17.0214 1.17513 17.0214 2.63172V7.44964H22.1194V2.63172H22.1754Z" fill="#A5A2D0"/>
<path d="M27.0489 7.44922H22.1749V12.5473H27.0489C28.4494 12.5473 29.6259 11.4268 29.6259 9.97023C29.6259 8.51364 28.4494 7.44922 27.0489 7.44922Z" fill="#C2D5A2"/>
<path d="M12.2592 7.44922C10.8586 7.44922 9.68213 8.56967 9.68213 10.0262C9.68213 11.4828 10.8026 12.6033 12.2592 12.6033H17.1331V7.44922H12.2592Z" fill="#A5A2D0"/>
<path d="M22.1752 7.44922H17.0771V12.5473H22.1752V7.44922Z" fill="#55B9A1"/>
<path d="M5.70435 2.63172V5.20875H10.4102C11.8108 5.20875 12.9873 4.0883 12.9873 2.63172C12.9873 1.23116 11.8668 0.0546875 10.4102 0.0546875H3.12732C4.52788 0.0546875 5.70435 1.23116 5.70435 2.63172Z" fill="#66B2E3"/>
<path d="M3.12757 5.15406H5.7046V2.57703C5.7046 1.17647 4.58415 0 3.12757 0C1.72701 0 0.550537 1.12045 0.550537 2.57703C0.550537 4.03362 1.72701 5.15406 3.12757 5.15406Z" fill="#8A82BC"/>
<path d="M10.4102 14.8477H5.70435V17.4247C5.70435 18.8253 4.5839 20.0017 3.12732 20.0017H10.4102C11.8108 20.0017 12.9873 18.8813 12.9873 17.4247C12.9312 16.0241 11.8108 14.8477 10.4102 14.8477Z" fill="#F7B88F"/>
<path d="M5.7046 17.4247V14.8477H3.12757C1.72701 14.8477 0.550537 15.9681 0.550537 17.4247C0.550537 18.8253 1.67099 20.0017 3.12757 20.0017C4.52813 20.0017 5.7046 18.8253 5.7046 17.4247Z" fill="#F0886D"/>
<path d="M69.0803 6.05346H67.8003C67.4803 6.05346 67.1603 5.73345 67.1603 5.41345C67.1603 5.09344 67.4803 4.77344 67.8003 4.77344H69.187C69.507 4.77344 69.827 5.09344 69.827 5.41345C69.7203 5.73345 69.507 6.05346 69.0803 6.05346Z" fill="#4A4A49"/>
<path d="M69.0803 8.40112H67.8003C67.4803 8.40112 67.1603 8.08112 67.1603 7.76111C67.1603 7.44111 67.4803 7.12109 67.8003 7.12109H69.187C69.507 7.12109 69.827 7.44111 69.827 7.76111C69.7203 8.08112 69.507 8.40112 69.0803 8.40112Z" fill="#4A4A49"/>
<path d="M94.8934 10.9599C94.5734 10.9599 94.2534 10.6399 94.2534 10.3199V3.70642C94.2534 3.38641 94.5734 3.06641 94.8934 3.06641C95.2134 3.06641 95.5334 3.38641 95.5334 3.70642V10.3199C95.5334 10.6399 95.3201 10.9599 94.8934 10.9599Z" fill="#4A4A49"/>
<path d="M80.7068 10.9599C80.3868 10.9599 80.0668 10.6399 80.0668 10.3199V3.70642C80.0668 3.38641 80.3868 3.06641 80.7068 3.06641C81.0268 3.06641 81.3468 3.38641 81.3468 3.70642V10.3199C81.3468 10.6399 81.0268 10.9599 80.7068 10.9599Z" fill="#4A4A49"/>
<path d="M88.708 10.9599C88.388 10.9599 88.068 10.6399 88.068 10.3199V3.70642C88.068 3.38641 88.388 3.06641 88.708 3.06641C89.028 3.06641 89.348 3.38641 89.348 3.70642V10.3199C89.348 10.6399 89.028 10.9599 88.708 10.9599Z" fill="#4A4A49"/>
<path d="M92.0139 10.9599C91.6939 10.9599 91.3739 10.6399 91.3739 10.3199V3.70642C91.3739 3.38641 91.6939 3.06641 92.0139 3.06641C92.3339 3.06641 92.6539 3.38641 92.6539 3.70642V10.3199C92.6539 10.6399 92.4406 10.9599 92.0139 10.9599Z" fill="#4A4A49"/>
<path d="M85.5071 10.9599C85.1871 10.9599 84.8671 10.6399 84.8671 10.3199V3.70642C84.8671 3.38641 85.1871 3.06641 85.5071 3.06641C85.8271 3.06641 86.1471 3.38641 86.1471 3.70642V10.3199C86.1471 10.6399 85.8271 10.9599 85.5071 10.9599Z" fill="#4A4A49"/>
<path d="M94.6801 7.65111H92.6534C92.3334 7.65111 92.0134 7.33111 92.0134 7.0111C92.0134 6.6911 92.3334 6.37109 92.6534 6.37109H94.6801C95.0001 6.37109 95.3202 6.6911 95.3202 7.0111C95.3202 7.33111 95.1068 7.65111 94.6801 7.65111Z" fill="#4A4A49"/>
<path d="M89.6683 4.34643H84.0149C83.6949 4.34643 83.3749 4.02642 83.3749 3.70642C83.3749 3.38641 83.6949 3.06641 84.0149 3.06641H89.6683C89.9883 3.06641 90.3083 3.38641 90.3083 3.70642C90.3083 4.02642 90.095 4.34643 89.6683 4.34643Z" fill="#4A4A49"/>
<path d="M69.6128 10.9599C69.2928 10.9599 68.9728 10.6399 68.9728 10.3199V3.70642C68.9728 3.38641 69.2928 3.06641 69.6128 3.06641C69.9328 3.06641 70.2528 3.38641 70.2528 3.70642V10.3199C70.2528 10.6399 70.0395 10.9599 69.6128 10.9599Z" fill="#4A4A49"/>
<path d="M61.4006 9.8944C61.0806 9.8944 60.7606 9.68105 60.7606 9.25438C60.7606 8.93437 60.974 8.61437 61.4006 8.5077C64.9207 8.18769 65.774 5.52098 65.9874 4.24096H61.4006C61.0806 4.24096 60.7606 3.92095 60.7606 3.60095C60.7606 3.28094 61.0806 2.96094 61.4006 2.96094H66.6274C66.8407 2.96094 66.9474 3.0676 67.0541 3.17427C67.1607 3.28094 67.2674 3.49428 67.2674 3.60095C67.2674 3.70762 67.0541 9.36105 61.4006 9.8944Z" fill="#4A4A49"/>
<path d="M72.9198 9.8944C72.5998 9.8944 72.2798 9.68105 72.2798 9.25438C72.2798 8.93437 72.4931 8.61437 72.9198 8.5077C76.4399 8.18769 77.2932 5.52098 77.5066 4.24096H73.0265C72.7065 4.24096 72.3865 3.92095 72.3865 3.60095C72.3865 3.28094 72.7065 2.96094 73.0265 2.96094H78.2532C78.4666 2.96094 78.5732 3.0676 78.6799 3.17427C78.7866 3.28094 78.8932 3.49428 78.8932 3.60095C78.7866 3.70762 78.5732 9.36105 72.9198 9.8944Z" fill="#4A4A49"/>
<path d="M89.6683 10.9597H84.0149C83.6949 10.9597 83.3749 10.6397 83.3749 10.3197C83.3749 9.99969 83.6949 9.67969 84.0149 9.67969H89.6683C89.9883 9.67969 90.3083 9.99969 90.3083 10.3197C90.3083 10.6397 90.095 10.9597 89.6683 10.9597Z" fill="#4A4A49"/>
<path d="M106.202 10.9597H97.8823C97.5623 10.9597 97.2423 10.6397 97.2423 10.3197C97.2423 9.99969 97.5623 9.67969 97.8823 9.67969H106.202C106.522 9.67969 106.842 9.99969 106.842 10.3197C106.842 10.6397 106.629 10.9597 106.202 10.9597Z" fill="#4A4A49"/>
<path d="M97.9863 8.39968C97.773 8.39968 97.6663 8.29301 97.5597 8.18634C97.3463 7.973 97.3463 7.54633 97.5597 7.22633L101.72 3.06625C101.933 2.85292 102.36 2.85292 102.68 3.06625L106.84 7.22633C107.053 7.43967 107.053 7.86633 106.84 8.18634C106.627 8.39968 106.2 8.39968 105.88 8.18634L102.146 4.45294L98.413 8.18634C98.3063 8.39968 98.093 8.39968 97.9863 8.39968Z" fill="#4A4A49"/>
<path d="M66.3062 18.0013C64.0662 18.0013 62.2528 16.188 62.2528 13.9479C62.2528 11.7079 64.0662 9.89453 66.3062 9.89453C68.5462 9.89453 70.3596 11.7079 70.3596 13.9479C70.3596 16.188 68.4396 18.0013 66.3062 18.0013ZM66.3062 11.2812C64.8128 11.2812 63.6395 12.4546 63.6395 13.9479C63.6395 15.4413 64.8128 16.6146 66.3062 16.6146C67.7996 16.6146 68.9729 15.4413 68.9729 13.9479C68.9729 12.4546 67.7996 11.2812 66.3062 11.2812Z" fill="#4A4A49"/>
<path d="M43.0532 11.1735C42.7332 11.1735 42.4132 10.8535 42.4132 10.5335V2.64001C42.4132 2.32 42.7332 2 43.0532 2C43.3732 2 43.6932 2.32 43.6932 2.64001V10.5335C43.6932 10.8535 43.4799 11.1735 43.0532 11.1735Z" fill="#4A4A49"/>
<path d="M38.0386 11.1732C37.7186 11.1732 37.3986 10.8532 37.3986 10.5332V3.70642C37.3986 3.38641 37.7186 3.06641 38.0386 3.06641C38.3586 3.06641 38.6786 3.38641 38.6786 3.70642V10.5332C38.6786 10.8532 38.3586 11.1732 38.0386 11.1732Z" fill="#4A4A49"/>
<path d="M40.7063 4.24096H35.2662C34.9462 4.24096 34.6262 3.92095 34.6262 3.60095C34.6262 3.28094 34.9462 2.96094 35.2662 2.96094H40.7063C41.0263 2.96094 41.3463 3.28094 41.3463 3.60095C41.3463 3.92095 41.133 4.24096 40.7063 4.24096Z" fill="#4A4A49"/>
<path d="M48.4926 11.0651C48.1726 11.0651 47.8526 10.7451 47.8526 10.4251V7.54501C47.8526 6.37165 46.8926 5.5183 45.8259 5.5183C44.7592 5.5183 43.7992 6.47832 43.7992 7.54501V10.1051C43.7992 10.4251 43.4792 10.7451 43.1592 10.7451C42.8392 10.7451 42.5192 10.4251 42.5192 10.1051V7.54501C42.5192 5.73164 44.0125 4.23828 45.8259 4.23828C47.6393 4.23828 49.1326 5.73164 49.1326 7.54501V10.4251C49.1326 10.8517 48.8126 11.0651 48.4926 11.0651Z" fill="#4A4A49"/>
<path d="M53.6124 11.1739C53.5057 11.1739 53.2924 11.1739 53.1857 11.1739C51.2657 10.9605 49.879 9.25384 50.0923 7.3338C50.3057 5.41377 52.0124 4.02707 53.9324 4.24041C55.3191 4.34708 56.3858 5.30709 56.8125 6.58712C56.9191 6.80045 56.8125 6.90712 56.8125 7.12046C56.7058 7.22713 56.5991 7.44047 56.3858 7.44047L51.5857 8.61382C51.9057 9.25383 52.5457 9.78718 53.2924 9.89385C54.0391 10.0005 54.7858 9.68051 55.2124 9.14716C55.4258 8.82716 55.8524 8.82716 56.1724 9.0405C56.4925 9.25383 56.4924 9.68051 56.2791 10.0005C55.6391 10.6405 54.6791 11.1739 53.6124 11.1739ZM53.6124 5.52043C52.5457 5.52043 51.6924 6.26712 51.479 7.3338L55.3191 6.37378C54.9991 5.94711 54.4658 5.6271 53.8257 5.52043C53.7191 5.52043 53.7191 5.52043 53.6124 5.52043Z" fill="#4A4A49"/>
</svg>
