<svg width="160" height="100" viewBox="0 0 160 100" fill="none" xmlns="http://www.w3.org/2000/svg">
<g clip-path="url(#clip0_256_643)">
<path d="M127.268 45.7885L136.424 33.2692L145.542 42.5769L157.475 40.5192L136.424 19.0577L115.374 47.8462L127.268 45.7885Z" fill="#002147"/>
<path d="M85.1661 38.8269V30.75L56.1733 35.7885V43.8846L60.4529 43.1538V63.7115L56.1733 64.4423V72.5192L85.1661 67.4808V59.4038L80.9444 60.1346V39.5769L85.1661 38.8269ZM72.4047 61.6154L68.9541 62.2115V41.6538L72.4047 41.0577V61.6154Z" fill="#002147"/>
<path d="M108.53 63.3846V26.6923L99.7206 28.2308V42.0769L96.3856 42.6731V28.8269L87.6724 30.3269V67.0192L96.3856 65.5192V50.5385L99.7206 49.9423V64.9231L108.53 63.3846Z" fill="#002147"/>
<path d="M31.0747 61.6346L51.1615 58.1538V49.1154L31.0747 52.6346V61.6346Z" fill="#002147"/>
<path d="M9.00241 61.2692L24.4627 78.0769L35.6241 76.1154L18.6988 58.2885L35.0458 36.5769L23.9422 38.5L9.00241 58.9808V41.7885C9.06024 37.9038 12.2988 34.4615 16.5398 33.6923L151.325 10.2885C156.337 9.40385 160 5.07692 160 0L16.559 24.9231C7.5759 26.4808 0.462651 34.2115 0.0385542 42.7308H0V82.3654L8.98313 80.8077V61.2692H9.00241Z" fill="#002147"/>
<path d="M150.843 47.7308L112.983 54.3269V62.5577L150.843 55.9615V58.0577C150.843 62 147.605 65.5 143.306 66.2692L8.79038 89.6154C3.73978 90.5 0.0385742 94.8654 0.0385742 100L143.306 75.1731C152.578 73.5577 159.827 65.3846 159.827 56.5385V46.2115L150.843 47.7308Z" fill="#002147"/>
</g>
<defs>
<clipPath id="clip0_256_643">
<rect width="160" height="100" fill="white"/>
</clipPath>
</defs>
</svg>
